<svg width="1200" height="675" viewBox="0 0 1200 675" fill="none" xmlns="http://www.w3.org/2000/svg">
<rect width="1200" height="675" fill="url(#paint0_linear_5_157)"/>
<path d="M1063.14 189V145H1072.9V153.56C1073.43 150.68 1074.74 148.414 1076.82 146.76C1078.95 145.054 1081.69 144.2 1085.05 144.2C1089.53 144.2 1093.03 145.64 1095.53 148.52C1098.04 151.4 1099.29 155.427 1099.29 160.6V164.76H1089.29V161.08C1089.29 158.414 1088.6 156.387 1087.22 155C1085.83 153.56 1083.85 152.84 1081.29 152.84C1078.63 152.84 1076.6 153.64 1075.22 155.24C1073.83 156.84 1073.14 159.107 1073.14 162.04V189H1063.14Z" fill="white"/>
<path d="M1031.49 189.8C1027.75 189.8 1024.5 189.08 1021.73 187.64C1018.95 186.2 1016.79 184.174 1015.25 181.56C1013.75 178.894 1013.01 175.774 1013.01 172.2V161.8C1013.01 158.227 1013.75 155.134 1015.25 152.52C1016.79 149.854 1018.95 147.8 1021.73 146.36C1024.5 144.92 1027.75 144.2 1031.49 144.2C1035.17 144.2 1038.37 144.92 1041.09 146.36C1043.86 147.8 1045.99 149.827 1047.49 152.44C1049.03 155 1049.81 158.014 1049.81 161.48V169.48H1022.61V172.52C1022.61 175.507 1023.38 177.774 1024.93 179.32C1026.47 180.814 1028.66 181.56 1031.49 181.56C1033.57 181.56 1035.33 181.214 1036.77 180.52C1038.26 179.774 1039.14 178.707 1039.41 177.32H1049.33C1048.63 181.107 1046.66 184.147 1043.41 186.44C1040.15 188.68 1036.18 189.8 1031.49 189.8ZM1022.61 161.48V163L1040.21 162.92V161.4C1040.21 158.36 1039.46 156.014 1037.97 154.36C1036.47 152.707 1034.31 151.88 1031.49 151.88C1028.55 151.88 1026.34 152.734 1024.85 154.44C1023.35 156.094 1022.61 158.44 1022.61 161.48Z" fill="white"/>
<path d="M977.117 189L962.317 145H972.797L981.277 171.72C981.811 173.32 982.264 174.947 982.637 176.6C983.064 178.2 983.357 179.587 983.517 180.76C983.731 179.587 983.997 178.2 984.317 176.6C984.691 174.947 985.117 173.347 985.597 171.8L993.997 145H1004.56L989.837 189H977.117Z" fill="white"/>
<path d="M919.229 189V145H928.989V153.56C929.522 150.68 930.829 148.414 932.909 146.76C935.042 145.054 937.789 144.2 941.149 144.2C945.629 144.2 949.122 145.64 951.629 148.52C954.135 151.4 955.389 155.427 955.389 160.6V164.76H945.389V161.08C945.389 158.414 944.695 156.387 943.309 155C941.922 153.56 939.949 152.84 937.389 152.84C934.722 152.84 932.695 153.64 931.309 155.24C929.922 156.84 929.229 159.107 929.229 162.04V189H919.229Z" fill="white"/>
<path d="M887.58 189.8C883.847 189.8 880.593 189.08 877.82 187.64C875.047 186.2 872.887 184.174 871.34 181.56C869.847 178.894 869.1 175.774 869.1 172.2V161.8C869.1 158.227 869.847 155.134 871.34 152.52C872.887 149.854 875.047 147.8 877.82 146.36C880.593 144.92 883.847 144.2 887.58 144.2C891.26 144.2 894.46 144.92 897.18 146.36C899.953 147.8 902.087 149.827 903.58 152.44C905.127 155 905.9 158.014 905.9 161.48V169.48H878.7V172.52C878.7 175.507 879.473 177.774 881.02 179.32C882.567 180.814 884.753 181.56 887.58 181.56C889.66 181.56 891.42 181.214 892.86 180.52C894.353 179.774 895.233 178.707 895.5 177.32H905.42C904.727 181.107 902.753 184.147 899.5 186.44C896.247 188.68 892.273 189.8 887.58 189.8ZM878.7 161.48V163L896.3 162.92V161.4C896.3 158.36 895.553 156.014 894.06 154.36C892.567 152.707 890.407 151.88 887.58 151.88C884.647 151.88 882.433 152.734 880.94 154.44C879.447 156.094 878.7 158.44 878.7 161.48Z" fill="white"/>
<path d="M837.691 189.72C832.464 189.72 828.331 188.546 825.291 186.2C822.251 183.8 820.731 180.573 820.731 176.52H830.571C830.571 178.226 831.185 179.533 832.411 180.44C833.691 181.346 835.451 181.8 837.691 181.8H841.211C843.611 181.8 845.451 181.346 846.731 180.44C848.065 179.533 848.731 178.226 848.731 176.52C848.731 174.92 848.278 173.746 847.371 173C846.465 172.2 845.078 171.666 843.211 171.4L832.251 169.96C828.731 169.48 826.011 168.12 824.091 165.88C822.225 163.64 821.291 160.733 821.291 157.16C821.291 153 822.678 149.826 825.451 147.64C828.225 145.4 832.225 144.28 837.451 144.28H841.131C846.038 144.28 849.985 145.4 852.971 147.64C855.958 149.88 857.505 152.866 857.611 156.6H847.691C847.638 155.213 847.025 154.12 845.851 153.32C844.678 152.466 843.104 152.04 841.131 152.04H837.451C835.318 152.04 833.691 152.493 832.571 153.4C831.451 154.253 830.891 155.426 830.891 156.92C830.891 158.253 831.291 159.24 832.091 159.88C832.945 160.52 834.171 160.92 835.771 161.08L846.091 162.52C850.145 163 853.185 164.44 855.211 166.84C857.291 169.186 858.331 172.36 858.331 176.36C858.331 180.626 856.865 183.933 853.931 186.28C851.051 188.573 846.811 189.72 841.211 189.72H837.691Z" fill="white"/>
<path d="M778.762 167.24V157.96H804.362V167.24H778.762Z" fill="white"/>
<path d="M725.514 189V179.96L746.554 158.44C749.967 154.866 751.674 151.24 751.674 147.56C751.674 144.946 750.9 142.84 749.354 141.24C747.86 139.586 745.834 138.76 743.274 138.76C740.66 138.76 738.554 139.613 736.954 141.32C735.407 142.973 734.634 145.186 734.634 147.96H724.634C724.634 144.333 725.434 141.16 727.034 138.44C728.634 135.72 730.847 133.613 733.674 132.12C736.5 130.573 739.78 129.8 743.514 129.8C747.194 129.8 750.42 130.52 753.194 131.96C755.967 133.4 758.1 135.426 759.594 138.04C761.14 140.6 761.914 143.613 761.914 147.08C761.914 150.066 761.194 153.053 759.754 156.04C758.367 159.026 756.047 162.12 752.794 165.32L738.074 179.96H762.634V189H725.514Z" fill="white"/>
<path d="M677.785 189V130.6H687.785V145L687.545 153.16C688.078 150.387 689.385 148.2 691.465 146.6C693.545 145 696.185 144.2 699.385 144.2C703.705 144.2 707.145 145.64 709.705 148.52C712.318 151.4 713.625 155.267 713.625 160.12V189H703.625V161.32C703.625 158.6 702.905 156.52 701.465 155.08C700.078 153.587 698.185 152.84 695.785 152.84C693.278 152.84 691.305 153.587 689.865 155.08C688.478 156.573 687.785 158.707 687.785 161.48V189H677.785Z" fill="white"/>
<path d="M652.056 189C647.95 189 644.67 187.827 642.216 185.48C639.816 183.08 638.616 179.853 638.616 175.8V154.04H626.456V145H638.616V132.6H648.696V145H666.216V154.04H648.696V175.56C648.696 176.84 649.043 177.907 649.736 178.76C650.483 179.56 651.496 179.96 652.776 179.96H665.816V189H652.056Z" fill="white"/>
<path d="M599.688 189.8C594.087 189.8 589.687 188.253 586.487 185.16C583.287 182.013 581.688 177.747 581.688 172.36V145H591.688V172.28C591.688 175.053 592.381 177.213 593.767 178.76C595.154 180.307 597.127 181.08 599.688 181.08C602.194 181.08 604.141 180.307 605.527 178.76C606.967 177.213 607.688 175.053 607.688 172.28V145H617.688V172.36C617.688 177.747 616.061 182.013 612.807 185.16C609.554 188.253 605.181 189.8 599.688 189.8Z" fill="white"/>
<path d="M546.839 189.8C542.359 189.8 538.812 188.547 536.199 186.04C533.639 183.48 532.359 180.147 532.359 176.04C532.359 171.774 533.826 168.387 536.759 165.88C539.692 163.32 543.719 162.04 548.839 162.04H559.559V158.92C559.559 154.494 556.972 152.28 551.799 152.28C549.452 152.28 547.586 152.734 546.199 153.64C544.812 154.547 544.039 155.827 543.879 157.48H534.279C534.492 153.534 536.146 150.334 539.239 147.88C542.386 145.427 546.599 144.2 551.879 144.2C557.479 144.2 561.826 145.507 564.919 148.12C568.012 150.734 569.559 154.414 569.559 159.16V189H559.799V180.76C559.426 183.587 558.092 185.8 555.799 187.4C553.506 189 550.519 189.8 546.839 189.8ZM550.039 181.64C552.972 181.64 555.292 180.92 556.999 179.48C558.706 178.04 559.559 176.12 559.559 173.72V168.52H549.319C547.132 168.52 545.399 169.134 544.119 170.36C542.839 171.587 542.199 173.16 542.199 175.08C542.199 177.054 542.866 178.654 544.199 179.88C545.586 181.054 547.532 181.64 550.039 181.64Z" fill="white"/>
<path d="M503.75 189.72C498.097 189.72 493.617 188.146 490.31 185C487.003 181.8 485.35 177.506 485.35 172.12V161.88C485.35 156.44 487.003 152.146 490.31 149C493.617 145.853 498.097 144.28 503.75 144.28C509.403 144.28 513.883 145.853 517.19 149C520.497 152.146 522.15 156.44 522.15 161.88V172.12C522.15 177.506 520.497 181.8 517.19 185C513.883 188.146 509.403 189.72 503.75 189.72ZM503.75 181C506.417 181 508.47 180.28 509.91 178.84C511.403 177.346 512.15 175.213 512.15 172.44V161.56C512.15 158.786 511.403 156.68 509.91 155.24C508.47 153.746 506.417 153 503.75 153C501.083 153 499.003 153.746 497.51 155.24C496.07 156.68 495.35 158.786 495.35 161.56V172.44C495.35 175.213 496.07 177.346 497.51 178.84C499.003 180.28 501.083 181 503.75 181Z" fill="white"/>
<path d="M436.581 197.8L464.581 122.6H474.981L446.981 197.8H436.581Z" fill="white"/>
<path d="M389.893 189V179.96H404.933V154.04H391.493V145H414.933V179.96H428.453V189H389.893ZM409.253 137.64C407.226 137.64 405.626 137.133 404.453 136.12C403.279 135.053 402.693 133.64 402.693 131.88C402.693 130.12 403.279 128.733 404.453 127.72C405.626 126.653 407.226 126.12 409.253 126.12C411.279 126.12 412.879 126.653 414.053 127.72C415.226 128.733 415.813 130.12 415.813 131.88C415.813 133.64 415.226 135.053 414.053 136.12C412.879 137.133 411.279 137.64 409.253 137.64Z" fill="white"/>
<path d="M355.844 189.8C351.577 189.8 348.11 188.28 345.444 185.24C342.83 182.2 341.524 178.12 341.524 173V161.08C341.524 155.907 342.83 151.8 345.444 148.76C348.057 145.72 351.524 144.2 355.844 144.2C358.884 144.2 361.444 144.973 363.524 146.52C365.657 148.067 367.15 150.227 368.004 153L367.684 142.92V130.6H377.684V189H367.924V181C367.124 183.773 365.684 185.933 363.604 187.48C361.524 189.027 358.937 189.8 355.844 189.8ZM359.604 181.16C362.164 181.16 364.137 180.387 365.524 178.84C366.964 177.293 367.684 175.107 367.684 172.28V161.72C367.684 158.893 366.964 156.707 365.524 155.16C364.137 153.613 362.164 152.84 359.604 152.84C357.044 152.84 355.044 153.533 353.604 154.92C352.217 156.307 351.524 158.44 351.524 161.32V172.68C351.524 175.56 352.217 177.693 353.604 179.08C355.044 180.467 357.044 181.16 359.604 181.16Z" fill="white"/>
<path d="M294.035 189V145H303.795V153.24C304.328 150.467 305.635 148.28 307.715 146.68C309.795 145.027 312.435 144.2 315.635 144.2C319.955 144.2 323.395 145.64 325.955 148.52C328.568 151.4 329.875 155.267 329.875 160.12V189H319.875V161.32C319.875 158.6 319.155 156.52 317.715 155.08C316.328 153.587 314.435 152.84 312.035 152.84C309.528 152.84 307.555 153.587 306.115 155.08C304.728 156.574 304.035 158.707 304.035 161.48V189H294.035Z" fill="white"/>
<path d="M263.906 189.72C258.253 189.72 253.773 188.146 250.466 185C247.16 181.8 245.506 177.506 245.506 172.12V161.88C245.506 156.44 247.16 152.146 250.466 149C253.773 145.853 258.253 144.28 263.906 144.28C269.56 144.28 274.04 145.853 277.346 149C280.653 152.146 282.306 156.44 282.306 161.88V172.12C282.306 177.506 280.653 181.8 277.346 185C274.04 188.146 269.56 189.72 263.906 189.72ZM263.906 181C266.573 181 268.626 180.28 270.066 178.84C271.56 177.346 272.306 175.213 272.306 172.44V161.56C272.306 158.786 271.56 156.68 270.066 155.24C268.626 153.746 266.573 153 263.906 153C261.24 153 259.16 153.746 257.666 155.24C256.226 156.68 255.506 158.786 255.506 161.56V172.44C255.506 175.213 256.226 177.346 257.666 178.84C259.16 180.28 261.24 181 263.906 181Z" fill="white"/>
<path d="M195.698 189V145H204.018V151.4H204.258C204.418 149.267 205.164 147.534 206.498 146.2C207.831 144.867 209.511 144.2 211.538 144.2C213.511 144.2 215.191 144.84 216.578 146.12C217.964 147.347 218.898 149.027 219.378 151.16C219.591 149.027 220.364 147.347 221.698 146.12C223.084 144.84 224.818 144.2 226.898 144.2C229.564 144.2 231.778 145.267 233.538 147.4C235.298 149.48 236.178 152.174 236.178 155.48V189H227.378V156.2C227.378 154.76 227.031 153.64 226.338 152.84C225.698 151.987 224.764 151.56 223.538 151.56C221.138 151.56 219.938 153.107 219.938 156.2V189H211.938V156.2C211.938 154.76 211.618 153.64 210.978 152.84C210.391 151.987 209.511 151.56 208.338 151.56C205.778 151.56 204.498 153.107 204.498 156.2V189H195.698Z" fill="white"/>
<path d="M150.449 203.4V194.36H162.049C164.609 194.36 166.635 193.587 168.129 192.04C169.622 190.547 170.369 188.493 170.369 185.88V154.04H150.049V145H180.369V186.12C180.369 191.453 178.769 195.667 175.569 198.76C172.369 201.853 168.049 203.4 162.609 203.4H150.449ZM174.849 137.64C172.822 137.64 171.222 137.133 170.049 136.12C168.875 135.053 168.289 133.64 168.289 131.88C168.289 130.12 168.875 128.733 170.049 127.72C171.222 126.653 172.822 126.12 174.849 126.12C176.875 126.12 178.475 126.653 179.649 127.72C180.822 128.733 181.409 130.12 181.409 131.88C181.409 133.64 180.822 135.053 179.649 136.12C178.475 137.133 176.875 137.64 174.849 137.64Z" fill="white"/>
<path d="M122 203.4C117.2 203.4 113.04 202.44 109.52 200.52C106.053 198.653 103.36 195.986 101.44 192.52C99.5732 189.053 98.6399 184.92 98.6399 180.12V153C98.6399 148.2 99.5466 144.066 101.36 140.6C103.173 137.133 105.76 134.466 109.12 132.6C112.48 130.733 116.507 129.8 121.2 129.8C125.467 129.8 129.12 130.626 132.16 132.28C135.253 133.88 137.627 136.146 139.28 139.08C140.933 141.96 141.76 145.32 141.76 149.16V170.76C141.76 175.026 140.507 178.413 138 180.92C135.547 183.373 132.213 184.6 128 184.6C123.84 184.6 120.533 183.4 118.08 181C115.68 178.546 114.48 175.266 114.48 171.16V162.6C114.48 158.6 115.413 155.453 117.28 153.16C119.147 150.866 121.707 149.72 124.96 149.72C127.147 149.72 128.96 150.173 130.4 151.08C131.84 151.986 132.8 153.24 133.28 154.84H133.44V149.16C133.44 145.266 132.373 142.28 130.24 140.2C128.107 138.066 124.987 137 120.88 137C116.507 137 113.093 138.413 110.64 141.24C108.187 144.013 106.96 147.933 106.96 153V180.12C106.96 185.08 108.267 188.92 110.88 191.64C113.547 194.413 117.253 195.8 122 195.8H130.8V203.4H122ZM128 177.96C129.76 177.96 131.093 177.373 132 176.2C132.96 174.973 133.44 173.293 133.44 171.16V162.6C133.44 160.413 132.96 158.733 132 157.56C131.093 156.386 129.76 155.8 128 155.8C126.24 155.8 124.88 156.413 123.92 157.64C123.013 158.813 122.56 160.466 122.56 162.6V171.16C122.56 173.293 123.013 174.973 123.92 176.2C124.88 177.373 126.24 177.96 128 177.96Z" fill="white"/>
<g clip-path="url(#clip0_5_157)">
<g clip-path="url(#clip1_5_157)">
<path fillRule="evenodd" clipRule="evenodd" d="M152.828 297.294C155.527 297.106 158.232 297.008 160.938 297C200.645 296.952 227.381 317.5 243.091 342.213C251.492 355.42 259.738 375.489 259.774 396.114C259.816 418.517 252.555 437.916 243.091 452.153C233.358 466.783 220.775 478.87 205.02 486.803C178.672 500.067 141.858 500.431 117.753 487.663C90.8954 473.438 70.2438 453.134 62.5657 417.928C59.4876 403.842 59.1313 385.634 63.4172 370.016C64.1502 367.353 65.3172 364.585 66.4539 361.888C66.8801 360.877 67.3021 359.876 67.6954 358.894C74.6469 341.581 86.4735 326.525 101.061 316.113C106.928 311.933 114.044 307.767 120.313 304.995C128.125 301.538 141.269 298.091 152.828 297.294ZM228.977 331.944C214.278 315.805 191.099 301.766 161.422 301.8H161.42C159.411 301.801 157.402 301.868 155.397 302C149.195 302.399 143.749 303.036 137.855 304.567C121.442 308.819 109.4 316.45 98.9266 324.672C83.8219 336.533 74.1938 353.078 68.5532 373.008C62.2766 395.188 66.3079 422.022 74.9704 438.891C83.9547 456.384 96.0157 469.969 113.039 479.53C129.613 488.834 152.917 494.813 177.209 490.224C198.799 486.152 215.192 476.749 228.544 462.847C246.416 444.247 260.777 409.989 251.222 373.869C248.667 364.213 245.324 354.15 240.095 345.634C237.335 341.131 233.306 336.703 229.247 332.241L228.977 331.944ZM153.253 306.278C155.209 306.111 157.17 306.017 159.133 305.997L159.131 305.995C159.71 305.99 160.285 305.991 160.857 305.998L160.905 306.045C161.116 306.045 161.324 306.051 161.531 306.057C161.645 306.06 161.759 306.063 161.873 306.066L161.823 306.015C174.159 306.318 184.974 309.484 194.75 313.117C206.302 317.417 215.974 324.505 223.838 332.37C238.524 347.057 249.524 367.922 250.112 394.306L250.075 394.269C250.081 394.595 250.086 394.909 250.086 395.233L250.129 395.276C250.161 397.786 250.098 400.345 249.936 402.953C249.901 403.515 249.862 404.075 249.818 404.631L249.795 404.653L249.717 405.684L249.729 405.672C248.932 414.521 246.955 422.624 243.514 430.338C243.042 431.135 242.551 432.298 241.905 433.828C241.321 435.214 240.609 436.901 239.669 438.889C237.649 444.705 234.175 449.563 230.684 453.861C217.031 470.669 196.228 485.256 167.8 487.661C167.776 487.663 167.751 487.665 167.727 487.667L167.73 487.664C167.52 487.682 167.313 487.693 167.106 487.704C166.98 487.711 166.855 487.718 166.73 487.727L166.71 487.746C162.455 488.051 158.287 488.034 154.23 487.741L154.214 487.725C154.022 487.714 153.829 487.695 153.636 487.677C153.485 487.663 153.334 487.648 153.183 487.637L153.206 487.661C135.85 486.202 120.573 479.711 109.192 471.828C93.7876 461.169 82.9016 447.399 76.2516 430.338C73.0893 422.217 71.1398 413.571 70.4031 404.848L70.4281 404.873C70.3932 404.531 70.362 404.188 70.3344 403.845L70.3229 403.834C70.131 401.228 70.0472 398.617 70.0715 396.013L70.0906 395.994C70.0906 395.889 70.0896 395.783 70.0885 395.678C70.0865 395.467 70.0844 395.256 70.0906 395.047H70.0875L70.0854 395.049C70.2717 385.545 71.8995 376.152 74.9688 367.453C79.6938 354.055 86.8438 342.589 96.3563 333.23C109.938 319.863 127.808 308.449 153.253 306.278ZM153.514 320.2L153.548 312.13H153.55L157.594 312.144L157.559 320.131C157.556 322.205 158.597 323.195 160.197 323.202C161.808 323.208 162.847 322.267 162.863 320.255L162.889 312.164L166.936 312.18L166.908 320.144C166.888 324.789 164.228 326.811 160.142 326.794C156.056 326.78 153.503 324.691 153.514 320.2ZM177.423 317.528L178.439 314.192L178.438 314.191L190.5 317.87L189.484 321.209L185.355 319.952L182.183 330.358L178.37 329.197L181.544 318.784L177.423 317.528ZM133.027 316.614L136.688 315.438L136.686 315.439L146.936 327.355L142.869 328.659L141.084 326.531L135.809 328.227L135.616 330.988L131.625 332.266L133.027 316.614ZM139.042 323.934L136.269 320.528L135.973 324.916L139.042 323.934ZM193.311 334.492L201.269 322.528L204.588 324.731L201.606 329.209L205.864 332.047L208.845 327.567L212.155 329.773L204.195 341.737L200.877 339.533L203.908 334.986L199.65 332.148L196.619 336.702L193.311 334.492ZM111.411 327.814C112.758 326.842 114.242 326.325 115.706 326.248C116.93 326.179 118.149 326.42 119.255 326.948C120.361 327.476 121.315 328.275 122.03 329.27L122.058 329.305C124.489 332.638 123.775 337.298 120.191 339.919C116.609 342.527 112.009 341.797 109.578 338.462L109.552 338.427C107.12 335.094 107.833 330.434 111.411 327.814ZM118.775 331.705C118.005 330.652 116.831 330.033 115.623 330.033C114.858 330.038 114.115 330.287 113.5 330.742C111.742 332.025 111.605 334.312 112.827 335.987L112.848 336.023C114.07 337.698 116.35 338.273 118.109 336.991C119.881 335.692 120.019 333.405 118.797 331.73L118.775 331.705ZM159.998 334.258L159.394 333.653C159.709 333.653 160.027 333.653 160.342 333.661L160.473 333.791L160.603 333.661C160.709 333.661 160.815 333.66 160.92 333.659C161.129 333.657 161.337 333.656 161.545 333.661L160.947 334.259L167.752 341.072L173.563 335.261C173.69 335.291 173.819 335.321 173.948 335.35C174.077 335.379 174.205 335.409 174.333 335.439L168.227 341.547L175.034 348.35L181.847 341.544L176.241 335.941L176.35 335.97C176.749 336.078 177.151 336.186 177.548 336.305L182.314 341.072L184.573 338.812L185.231 339.1L182.788 341.547L189.602 348.352L194.258 343.695C194.365 343.763 194.466 343.829 194.567 343.896C194.653 343.952 194.739 344.009 194.828 344.066L190.069 348.825L196.881 355.631L201.955 350.556L202.423 351.03L197.348 356.106L204.161 362.912L209.216 357.856L209.691 358.331L204.636 363.386L211.442 370.198L215.056 366.58L215.384 367.198L211.916 370.667L218.723 377.48L219.677 376.519C219.696 376.57 219.715 376.62 219.735 376.67C219.804 376.851 219.873 377.029 219.938 377.211L219.195 377.945L220.659 379.409C220.796 379.854 220.926 380.301 221.05 380.75L218.72 378.422L211.916 385.234L218.722 392.041L222.5 388.264L222.609 389.094L219.195 392.516L223.042 396.361C223.042 396.521 223.032 396.679 223.022 396.839C223.013 396.98 223.004 397.122 223.002 397.267L218.72 392.981L211.916 399.795L218.722 406.6L222.65 402.672C222.623 402.915 222.589 403.159 222.556 403.401C222.54 403.52 222.523 403.639 222.508 403.758L219.195 407.075L221.517 409.397C221.488 409.522 221.462 409.645 221.435 409.768C221.407 409.902 221.378 410.036 221.345 410.173L218.72 407.55L211.917 414.355L217.917 420.359C217.823 420.58 217.733 420.803 217.636 421.017L211.442 414.83L204.63 421.636L211.442 428.448L216.367 423.517C216.265 423.718 216.167 423.92 216.068 424.122C215.873 424.522 215.678 424.922 215.458 425.309L215.411 425.419L211.916 428.917L213.159 430.167C213.095 430.273 213.036 430.382 212.977 430.492C212.927 430.585 212.876 430.678 212.822 430.77L211.441 429.391L204.628 436.195L206.881 438.456C206.738 438.62 206.592 438.786 206.441 438.952L204.159 436.672L197.347 443.484L199.469 445.606C199.377 445.681 199.285 445.758 199.192 445.836C199.114 445.901 199.036 445.966 198.956 446.031L196.881 443.95L190.067 450.762L190.864 451.562C190.791 451.602 190.716 451.641 190.64 451.681C190.511 451.748 190.379 451.817 190.253 451.891L189.594 451.23L187.484 453.339C186.895 453.634 186.297 453.916 185.692 454.192L189.127 450.764L182.312 443.95L175.508 450.764L180.87 456.128C180.759 456.167 180.648 456.205 180.536 456.243C180.414 456.284 180.292 456.326 180.17 456.369L175.033 451.231L168.225 458.044L169.209 459.027L169.139 459.037C168.886 459.074 168.636 459.111 168.384 459.144L167.753 458.519L166.963 459.3C166.613 459.342 166.262 459.389 165.906 459.425L167.277 458.044L160.472 451.231L153.659 458.044L155.15 459.527C154.805 459.502 154.456 459.473 154.112 459.439L153.191 458.512L152.456 459.247C152.315 459.228 152.176 459.204 152.037 459.18C151.908 459.158 151.779 459.135 151.647 459.117L152.719 458.044L145.911 451.231L140.562 456.581C140.445 456.544 140.328 456.502 140.211 456.461C140.094 456.42 139.977 456.378 139.859 456.341L145.438 450.762L138.631 443.95L131.819 450.762L135.952 454.898C135.524 454.72 135.104 454.536 134.686 454.352C134.554 454.294 134.422 454.236 134.291 454.178L131.342 451.231L130.327 452.255C130.211 452.192 130.095 452.132 129.978 452.072C129.889 452.026 129.799 451.98 129.709 451.933L130.877 450.764L124.064 443.952L121.419 446.602C121.333 446.536 121.245 446.473 121.156 446.411C121.059 446.343 120.963 446.275 120.872 446.203L123.595 443.483L116.783 436.67L113.727 439.727C113.668 439.665 113.609 439.604 113.549 439.542C113.454 439.445 113.359 439.346 113.267 439.247L116.314 436.195L109.502 429.389L107.25 431.644C107.143 431.49 107.043 431.332 106.943 431.174C106.922 431.14 106.901 431.107 106.88 431.073L109.036 428.917L102.223 422.108L102.188 422.144C101.957 421.604 101.829 421.287 101.702 420.972C101.634 420.802 101.565 420.632 101.481 420.428L102.223 421.162L109.036 414.353L102.223 407.541L99.0094 410.762C98.993 410.672 98.9761 410.585 98.9594 410.498C98.9251 410.319 98.8914 410.144 98.8641 409.959L101.748 407.075L98.1437 403.463C98.1279 403.276 98.123 403.091 98.1181 402.908C98.1143 402.764 98.1105 402.622 98.1016 402.481L102.223 406.6L109.036 399.794L102.223 392.98L97.9437 397.261C97.9437 397.099 97.9488 396.939 97.9539 396.78C97.959 396.62 97.9641 396.46 97.9641 396.298L101.748 392.508L98.3687 389.128C98.3804 389.009 98.3894 388.889 98.3983 388.768C98.411 388.598 98.4236 388.429 98.4437 388.264L102.223 392.039L109.036 385.227L102.223 378.42L99.7156 380.928C99.7328 380.858 99.7499 380.789 99.767 380.719C99.8541 380.363 99.9411 380.008 100.039 379.664L101.748 377.945L100.877 377.067C100.958 376.842 101.041 376.616 101.13 376.381L102.223 377.48L109.036 370.667L105.375 367.006C105.433 366.899 105.488 366.792 105.543 366.684C105.594 366.585 105.644 366.486 105.697 366.387L109.502 370.192L116.317 363.387L111.13 358.202C111.201 358.111 111.277 358.022 111.352 357.933C111.421 357.85 111.49 357.768 111.556 357.686L116.784 362.911L123.597 356.106L118.138 350.645C118.204 350.583 118.269 350.519 118.334 350.454C118.427 350.362 118.52 350.269 118.617 350.184L124.072 355.631L130.878 348.825L126.295 344.244C126.423 344.162 126.552 344.084 126.681 344.007C126.747 343.966 126.814 343.926 126.88 343.886L131.352 348.35L138.156 341.544L135.917 339.306C135.987 339.276 136.056 339.247 136.124 339.217C136.277 339.151 136.426 339.086 136.584 339.025L138.631 341.072L142.841 336.855L144.242 336.402L139.097 341.547L145.912 348.35L152.719 341.544L146.811 335.631L147.545 335.425L153.194 341.07L159.998 334.258ZM167.286 341.544L160.472 334.731L153.667 341.547L160.473 348.35L167.286 341.544ZM145.438 348.825L138.631 342.011V342.013L131.819 348.825L138.631 355.631L145.438 348.825ZM159.998 348.825L153.192 342.011V342.013L146.386 348.825L153.194 355.631L159.998 348.825ZM174.564 348.825L167.752 342.011V342.013L160.947 348.825L167.752 355.631L174.564 348.825ZM189.125 348.825L182.32 342.011V342.013L175.508 348.825L182.32 355.631L189.125 348.825ZM138.156 356.106L131.352 349.292L124.537 356.106L131.352 362.911L138.156 356.106ZM152.717 356.106L145.912 349.292L139.1 356.108L145.912 362.914L146.005 362.819C145.731 363.347 145.489 363.894 145.302 364.472L139.102 370.669L142.325 373.892L142.097 374.606L138.633 371.142L131.82 377.948L138.633 384.761L139.016 384.381L138.578 385.758L131.82 392.517L135.336 396.025L135.109 396.745L131.348 392.983L124.536 399.797L131.348 406.602L132.297 405.652L131.861 407.034L131.82 407.077L131.841 407.098L131.617 407.806L131.352 407.544L124.539 414.356L128.348 418.164L128.12 418.88L124.064 414.831L117.259 421.637L124.066 428.45L125.673 426.844C125.576 427.228 125.5 427.618 125.445 428.011L124.539 428.919L125.372 429.748C125.374 429.822 125.375 429.896 125.377 429.97C125.382 430.228 125.387 430.486 125.419 430.741L124.064 429.392L117.259 436.198L124.067 443.011L129.348 437.733C129.462 437.824 129.585 437.904 129.708 437.985C129.773 438.028 129.839 438.071 129.903 438.116L124.541 443.478L131.345 450.291L138.158 443.478L134.478 439.803C134.847 439.881 135.219 439.94 135.594 439.978L138.633 443.009L145.441 436.197L144.55 435.309C144.671 435.114 144.786 434.914 144.894 434.711L145.914 435.731L152.72 428.919L148.512 424.711L148.736 423.994L153.195 428.45L160 421.637L157.8 419.438H158.75L160.475 421.161L162.197 419.438H163.144L160.945 421.636L167.753 428.45L173.011 423.184L173.242 423.898L168.227 428.917L175.033 435.73L176.694 434.067C176.795 434.277 176.903 434.483 177.019 434.686L175.508 436.197L182.312 443.009L185.344 439.984C185.437 439.992 185.531 440.001 185.624 440.011C185.811 440.031 185.998 440.05 186.188 440.05L186.225 440.047L182.789 443.484L189.594 450.289L196.408 443.477L191.538 438.606C191.653 438.54 191.757 438.459 191.861 438.378C191.934 438.321 192.007 438.264 192.084 438.212L196.881 443.008L203.686 436.195L196.881 429.389L196.689 429.583C196.69 429.515 196.691 429.446 196.692 429.378C196.697 428.995 196.703 428.614 196.658 428.225L196.881 428.448L203.686 421.636L196.881 414.83L193.55 418.155L193.316 417.445L196.406 414.355L190.239 408.188L189.683 406.509L196.403 399.794L189.592 392.98L186.286 396.292L186.053 395.581L189.127 392.516L182.997 386.384L182.419 384.653L189.127 377.945L182.312 371.141L179.025 374.428L178.791 373.725L181.847 370.666L175.755 364.581L175.692 364.395C175.522 363.869 175.311 363.366 175.064 362.881L181.845 356.106L175.033 349.294L168.227 356.106L170.42 358.3C169.914 358.044 169.386 357.834 168.842 357.662L167.752 356.572L167.059 357.27C166.77 357.231 166.481 357.212 166.191 357.197L167.286 356.106L160.47 349.294L153.667 356.106L154.761 357.2C154.72 357.202 154.679 357.205 154.638 357.207C154.386 357.221 154.135 357.235 153.886 357.27L153.192 356.58L152.111 357.661C151.555 357.841 151.014 358.059 150.498 358.325L152.717 356.106ZM196.406 356.109L189.6 349.292L182.788 356.109L189.602 362.914L196.406 356.109ZM130.878 363.386L124.069 356.573L117.258 363.387L124.072 370.192L130.878 363.386ZM145.438 363.386L138.631 356.573L131.819 363.387L138.631 370.192L145.438 363.386ZM189.125 363.386L182.32 356.58L175.508 363.386L182.312 370.198L189.125 363.386ZM203.688 363.386L196.881 356.581L190.069 363.386L196.881 370.198L203.688 363.386ZM147.189 365.131C148.314 361.636 151.584 359.156 155.306 359.156L155.305 359.158H165.68C169.283 359.158 172.67 361.528 173.797 365.016L194.312 426.797C195.775 431.302 193.405 436.152 188.9 437.622C188.024 437.905 187.109 438.05 186.188 438.053C182.588 438.053 179.25 435.814 178.075 432.209L173.234 417.436H148.658L144.145 432.092C143.584 433.819 142.491 435.323 141.023 436.391C139.555 437.459 137.787 438.036 135.972 438.039C135.072 438.038 134.177 437.897 133.32 437.622C128.816 436.267 126.336 431.42 127.688 426.906L147.189 365.131ZM123.595 370.667L116.783 363.862L109.977 370.669L116.783 377.481L123.595 370.667ZM138.156 370.667L131.35 363.862L124.537 370.669L131.352 377.481L138.156 370.667ZM196.406 370.667L189.602 363.862L182.788 370.669L189.602 377.481L196.406 370.667ZM210.967 370.667L204.161 363.862L197.347 370.669L204.163 377.481L210.967 370.667ZM116.312 377.947L109.5 371.141L102.695 377.947L109.5 384.759L116.312 377.947ZM130.875 377.947L124.062 371.141L117.256 377.947L124.062 384.759L130.875 377.947ZM203.684 377.947L196.88 371.141L190.067 377.947L196.88 384.759L203.684 377.947ZM218.247 377.947L211.441 371.141L211.439 371.142L204.627 377.947L211.441 384.759L218.247 377.947ZM123.591 385.228L116.78 378.423L109.975 385.23L116.778 392.041L123.591 385.228ZM138.152 385.228L131.345 378.422L124.531 385.228L131.348 392.041L138.152 385.228ZM196.403 385.228L189.598 378.422L182.786 385.236L189.587 392.041L196.403 385.228ZM210.961 385.234L204.158 378.422H204.155L197.342 385.23L204.159 392.042L210.961 385.234ZM116.312 392.511L109.5 385.703L102.695 392.511L109.5 399.323L116.312 392.511ZM130.877 392.511L124.064 385.703L117.258 392.519L124.064 399.323L130.877 392.511ZM203.684 392.519L196.881 385.703L190.067 392.519L196.88 399.322L203.684 392.519ZM218.244 392.519L211.439 385.703L211.438 385.705L204.625 392.519L211.439 399.322L218.244 392.519ZM123.591 399.798L116.778 392.984L109.972 399.802L116.778 406.605L123.591 399.798ZM210.962 399.798L204.155 392.984L197.342 399.802L204.159 406.605L210.962 399.798ZM116.311 407.08L109.498 400.266L102.694 407.08L109.498 413.884L116.311 407.08ZM130.875 407.08L124.061 400.266L117.256 407.078L124.062 413.883L130.875 407.08ZM203.683 407.08L196.88 400.266L190.066 407.08L196.878 413.884L203.683 407.08ZM218.242 407.08L211.438 400.266L211.436 400.267L204.623 407.08L211.438 413.884L218.242 407.08ZM123.594 414.355L116.781 407.542L109.975 414.356L116.781 421.164L123.594 414.355ZM210.966 414.356L204.159 407.55L204.158 407.552L197.345 414.356L204.161 421.164L210.966 414.356ZM116.316 421.637L109.503 414.831L102.697 421.637L109.503 428.45L116.316 421.637ZM109.977 428.919L116.784 435.731L123.597 428.919L116.784 422.109L116.783 422.112L109.977 428.919ZM167.277 428.919L160.472 422.109V422.112L153.659 428.919L160.473 435.731L167.277 428.919ZM210.967 428.919L204.159 422.109V422.112L197.347 428.919L204.163 435.731L210.967 428.919ZM160 436.197L153.192 429.392L146.38 436.197L153.195 443.009L160 436.197ZM174.566 436.197L167.753 429.391L167.752 429.392L160.947 436.197L167.753 443.009L174.566 436.197ZM152.716 443.48L145.911 436.672L139.095 443.48L145.911 450.292L152.716 443.48ZM167.278 443.488L160.47 436.673L153.658 443.481L160.472 450.294L167.278 443.488ZM181.844 443.488L175.031 436.672V436.675L168.225 443.488L175.031 450.294L181.844 443.488ZM159.997 450.767L153.191 443.953L146.377 450.767L153.192 457.572L159.997 450.767ZM174.563 450.767L167.75 443.953L160.945 450.767L167.75 457.572L174.563 450.767ZM206.541 450.561C206.845 450.535 207.151 450.527 207.456 450.534C208.526 450.567 209.576 450.835 210.53 451.319C211.484 451.803 212.32 452.491 212.978 453.334L213.006 453.37C215.569 456.613 215.033 461.297 211.55 464.05C208.067 466.797 203.445 466.241 200.883 463L200.856 462.972C198.3 459.73 198.839 455.039 202.32 452.292C203.53 451.319 204.996 450.717 206.541 450.561ZM110.909 466.358L118.3 454.03L121.714 456.083L118.903 460.767L123.292 463.391L126.102 458.706L129.516 460.753L122.125 473.083L118.713 471.036L121.472 466.42L117.091 463.797L114.323 468.413L110.909 466.358ZM209.8 455.905C208.992 454.886 207.798 454.311 206.6 454.358C205.839 454.386 205.105 454.659 204.511 455.136C202.786 456.495 202.738 458.789 204.022 460.417L204.05 460.444C205.333 462.072 207.628 462.566 209.352 461.2C211.064 459.853 211.109 457.567 209.827 455.939L209.8 455.905ZM187.284 461.866L191.214 460.411L190.497 476.111L186.892 477.442L176.13 465.995L180.134 464.511L182.009 466.55L187.209 464.627L187.284 461.866ZM137.956 474.978L140.792 464.469L144.639 465.506L141.803 476.016L145.966 477.141L145.059 480.508L132.887 477.223L133.795 473.853L137.956 474.978ZM156.516 474.07C156.309 469.434 158.864 467.284 162.95 467.106C167.03 466.928 169.688 468.884 169.886 473.378L170.236 481.441L166.2 481.62L165.847 473.637C165.753 471.564 164.666 470.63 163.066 470.698C161.466 470.769 160.464 471.756 160.547 473.77L160.903 481.853L156.866 482.031L156.516 474.07ZM187.187 467.945L184.166 469.064L187.084 472.341L187.187 467.945Z" fill="white"/>
</g>
</g>
<path d="M894.96 456.32V451.82C897.096 451.316 898.776 450.212 900 448.508C901.248 446.78 901.872 444.692 901.872 442.244V435.8C901.872 433.352 901.248 431.276 900 429.572C898.776 427.844 897.096 426.728 894.96 426.224V421.76C898.608 422.624 901.428 424.28 903.42 426.728C905.412 429.176 906.408 432.2 906.408 435.8V442.244C906.408 445.868 905.412 448.916 903.42 451.388C901.428 453.836 898.608 455.48 894.96 456.32Z" fill="white"/>
<path d="M872.402 452V425.72H888.17V429.68H876.83V436.52H886.91V440.336H876.83V448.04H888.17V452H872.402Z" fill="white"/>
<path d="M858.737 452.36C857.033 452.36 855.556 452.048 854.308 451.424C853.06 450.776 852.089 449.876 851.393 448.724C850.721 447.548 850.385 446.168 850.385 444.584V433.136C850.385 431.552 850.721 430.184 851.393 429.032C852.089 427.856 853.06 426.956 854.308 426.332C855.556 425.684 857.033 425.36 858.737 425.36C860.417 425.36 861.88 425.684 863.128 426.332C864.376 426.956 865.348 427.856 866.044 429.032C866.74 430.184 867.089 431.552 867.089 433.136H862.552C862.552 431.912 862.216 430.976 861.544 430.328C860.896 429.656 859.961 429.32 858.737 429.32C857.513 429.32 856.565 429.656 855.893 430.328C855.221 430.976 854.885 431.912 854.885 433.136V444.584C854.885 445.808 855.221 446.756 855.893 447.428C856.565 448.076 857.513 448.4 858.737 448.4C859.961 448.4 860.896 448.076 861.544 447.428C862.216 446.756 862.552 445.808 862.552 444.584H867.089C867.089 446.168 866.74 447.548 866.044 448.724C865.348 449.876 864.376 450.776 863.128 451.424C861.88 452.048 860.417 452.36 858.737 452.36Z" fill="white"/>
<path d="M828.799 452V425.72H833.299V436.448H836.395L841.399 425.72H846.259L840.355 438.248L846.547 452H841.543L836.359 440.372H833.299V452H828.799Z" fill="white"/>
<path d="M807.249 452V425.72H815.997C817.749 425.72 819.273 426.056 820.569 426.728C821.889 427.4 822.909 428.348 823.629 429.572C824.349 430.772 824.709 432.188 824.709 433.82C824.709 435.452 824.349 436.88 823.629 438.104C822.909 439.304 821.889 440.24 820.569 440.912C819.273 441.584 817.749 441.92 815.997 441.92H811.749V452H807.249ZM811.749 437.96H815.997C817.269 437.96 818.277 437.576 819.021 436.808C819.765 436.04 820.137 435.044 820.137 433.82C820.137 432.596 819.765 431.6 819.021 430.832C818.277 430.064 817.269 429.68 815.997 429.68H811.749V437.96Z" fill="white"/>
<path d="M800.351 456.32C796.703 455.48 793.883 453.836 791.891 451.388C789.899 448.916 788.903 445.868 788.903 442.244V435.8C788.903 432.2 789.899 429.176 791.891 426.728C793.883 424.28 796.703 422.624 800.351 421.76V426.224C798.215 426.728 796.523 427.844 795.275 429.572C794.051 431.276 793.439 433.352 793.439 435.8V442.244C793.439 444.692 794.051 446.78 795.275 448.508C796.523 450.212 798.215 451.316 800.351 451.82V456.32Z" fill="white"/>
<path d="M750.555 452.36C748.875 452.36 747.411 452.036 746.163 451.388C744.915 450.74 743.943 449.828 743.247 448.652C742.575 447.452 742.239 446.048 742.239 444.44V439.76C742.239 438.152 742.575 436.76 743.247 435.584C743.943 434.384 744.915 433.46 746.163 432.812C747.411 432.164 748.875 431.84 750.555 431.84C752.211 431.84 753.651 432.164 754.875 432.812C756.123 433.46 757.083 434.372 757.755 435.548C758.451 436.7 758.799 438.056 758.799 439.616V443.216H746.559V444.584C746.559 445.928 746.907 446.948 747.603 447.644C748.299 448.316 749.283 448.652 750.555 448.652C751.491 448.652 752.283 448.496 752.931 448.184C753.603 447.848 753.999 447.368 754.119 446.744H758.583C758.271 448.448 757.383 449.816 755.919 450.848C754.455 451.856 752.667 452.36 750.555 452.36ZM746.559 439.616V440.3L754.479 440.264V439.58C754.479 438.212 754.143 437.156 753.471 436.412C752.799 435.668 751.827 435.296 750.555 435.296C749.235 435.296 748.239 435.68 747.567 436.448C746.895 437.192 746.559 438.248 746.559 439.616Z" fill="white"/>
<path d="M723.605 458.48V454.736H729.185C730.241 454.736 731.057 454.448 731.633 453.872C732.209 453.32 732.497 452.564 732.497 451.604V450.416L732.569 447.32C732.161 448.424 731.501 449.288 730.589 449.912C729.701 450.512 728.609 450.812 727.313 450.812C725.297 450.812 723.689 450.14 722.489 448.796C721.313 447.428 720.725 445.58 720.725 443.252V439.4C720.725 437.096 721.313 435.26 722.489 433.892C723.689 432.524 725.297 431.84 727.313 431.84C728.609 431.84 729.701 432.152 730.589 432.776C731.501 433.376 732.161 434.24 732.569 435.368V432.2H736.961V451.712C736.961 453.8 736.265 455.444 734.873 456.644C733.505 457.868 731.633 458.48 729.257 458.48H723.605ZM728.825 446.96C729.977 446.96 730.865 446.624 731.489 445.952C732.137 445.256 732.461 444.296 732.461 443.072V439.616C732.461 438.392 732.137 437.444 731.489 436.772C730.865 436.076 729.977 435.728 728.825 435.728C727.673 435.728 726.785 436.064 726.161 436.736C725.537 437.384 725.225 438.296 725.225 439.472V443.216C725.225 444.392 725.537 445.316 726.161 445.988C726.785 446.636 727.673 446.96 728.825 446.96Z" fill="white"/>
<path d="M699.319 452V432.2H703.711V435.908C703.951 434.66 704.539 433.676 705.475 432.956C706.411 432.212 707.599 431.84 709.039 431.84C710.983 431.84 712.531 432.488 713.683 433.784C714.859 435.08 715.447 436.82 715.447 439.004V452H710.947V439.544C710.947 438.32 710.623 437.384 709.975 436.736C709.351 436.064 708.499 435.728 707.419 435.728C706.291 435.728 705.403 436.064 704.755 436.736C704.131 437.408 703.819 438.368 703.819 439.616V452H699.319Z" fill="white"/>
<path d="M683.565 452.36C681.549 452.36 679.953 451.796 678.777 450.668C677.625 449.516 677.049 448.016 677.049 446.168C677.049 444.248 677.709 442.724 679.029 441.596C680.349 440.444 682.161 439.868 684.465 439.868H689.289V438.464C689.289 436.472 688.125 435.476 685.797 435.476C684.741 435.476 683.901 435.68 683.277 436.088C682.653 436.496 682.305 437.072 682.233 437.816H677.913C678.009 436.04 678.753 434.6 680.145 433.496C681.561 432.392 683.457 431.84 685.833 431.84C688.353 431.84 690.309 432.428 691.701 433.604C693.093 434.78 693.789 436.436 693.789 438.572V452H689.397V448.292C689.229 449.564 688.629 450.56 687.597 451.28C686.565 452 685.221 452.36 683.565 452.36ZM685.005 448.688C686.325 448.688 687.369 448.364 688.137 447.716C688.905 447.068 689.289 446.204 689.289 445.124V442.784H684.681C683.697 442.784 682.917 443.06 682.341 443.612C681.765 444.164 681.477 444.872 681.477 445.736C681.477 446.624 681.777 447.344 682.377 447.896C683.001 448.424 683.877 448.688 685.005 448.688Z" fill="white"/>
<path d="M656.147 452V425.72H660.647V432.2L660.539 435.872C660.779 434.624 661.367 433.64 662.303 432.92C663.239 432.2 664.427 431.84 665.867 431.84C667.811 431.84 669.359 432.488 670.511 433.784C671.687 435.08 672.275 436.82 672.275 439.004V452H667.775V439.544C667.775 438.32 667.451 437.384 666.803 436.736C666.179 436.064 665.327 435.728 664.247 435.728C663.119 435.728 662.231 436.064 661.583 436.736C660.959 437.408 660.647 438.368 660.647 439.616V452H656.147Z" fill="white"/>
<path d="M642.913 452.36C641.209 452.36 639.721 452.048 638.449 451.424C637.201 450.776 636.229 449.876 635.533 448.724C634.837 447.548 634.489 446.168 634.489 444.584V439.616C634.489 438.032 634.837 436.664 635.533 435.512C636.229 434.336 637.201 433.436 638.449 432.812C639.721 432.164 641.209 431.84 642.913 431.84C645.385 431.84 647.365 432.488 648.853 433.784C650.365 435.056 651.157 436.796 651.229 439.004H646.801C646.729 437.972 646.333 437.18 645.613 436.628C644.917 436.052 644.017 435.764 642.913 435.764C641.689 435.764 640.729 436.1 640.033 436.772C639.337 437.42 638.989 438.356 638.989 439.58V444.584C638.989 445.808 639.337 446.756 640.033 447.428C640.729 448.1 641.689 448.436 642.913 448.436C644.041 448.436 644.953 448.16 645.649 447.608C646.345 447.032 646.729 446.228 646.801 445.196H651.229C651.157 447.404 650.365 449.156 648.853 450.452C647.365 451.724 645.385 452.36 642.913 452.36Z" fill="white"/>
<path d="M611.499 452L618.411 441.776L611.967 432.2H617.043L620.103 437.06C620.295 437.348 620.475 437.672 620.643 438.032C620.811 438.392 620.931 438.68 621.003 438.896C621.099 438.68 621.219 438.392 621.363 438.032C621.531 437.672 621.711 437.348 621.903 437.06L624.963 432.2H630.075L623.631 441.776L630.507 452H625.395L621.975 446.564C621.783 446.276 621.591 445.952 621.399 445.592C621.231 445.208 621.099 444.908 621.003 444.692C620.907 444.908 620.775 445.208 620.607 445.592C620.439 445.952 620.259 446.276 620.067 446.564L616.611 452H611.499Z" fill="white"/>
<path d="M591.785 452V425.72H607.553V429.68H596.213V436.52H606.293V440.336H596.213V448.04H607.553V452H591.785Z" fill="white"/>
<path d="M556.281 452.36C554.601 452.36 553.137 452.036 551.889 451.388C550.641 450.74 549.669 449.828 548.973 448.652C548.301 447.452 547.965 446.048 547.965 444.44V439.76C547.965 438.152 548.301 436.76 548.973 435.584C549.669 434.384 550.641 433.46 551.889 432.812C553.137 432.164 554.601 431.84 556.281 431.84C557.937 431.84 559.377 432.164 560.601 432.812C561.849 433.46 562.809 434.372 563.481 435.548C564.177 436.7 564.525 438.056 564.525 439.616V443.216H552.285V444.584C552.285 445.928 552.633 446.948 553.329 447.644C554.025 448.316 555.009 448.652 556.281 448.652C557.217 448.652 558.009 448.496 558.657 448.184C559.329 447.848 559.725 447.368 559.845 446.744H564.309C563.997 448.448 563.109 449.816 561.645 450.848C560.181 451.856 558.393 452.36 556.281 452.36ZM552.285 439.616V440.3L560.205 440.264V439.58C560.205 438.212 559.869 437.156 559.197 436.412C558.525 435.668 557.553 435.296 556.281 435.296C554.961 435.296 553.965 435.68 553.293 436.448C552.621 437.192 552.285 438.248 552.285 439.616Z" fill="white"/>
<path d="M532.859 452.36C530.939 452.36 529.379 451.676 528.179 450.308C527.003 448.94 526.415 447.104 526.415 444.8V439.436C526.415 437.108 527.003 435.26 528.179 433.892C529.355 432.524 530.915 431.84 532.859 431.84C534.227 431.84 535.379 432.188 536.315 432.884C537.275 433.58 537.947 434.552 538.331 435.8L538.187 431.264V425.72H542.687V452H538.295V448.4C537.935 449.648 537.287 450.62 536.351 451.316C535.415 452.012 534.251 452.36 532.859 452.36ZM534.551 448.472C535.703 448.472 536.591 448.124 537.215 447.428C537.863 446.732 538.187 445.748 538.187 444.476V439.724C538.187 438.452 537.863 437.468 537.215 436.772C536.591 436.076 535.703 435.728 534.551 435.728C533.399 435.728 532.499 436.04 531.851 436.664C531.227 437.288 530.915 438.248 530.915 439.544V444.656C530.915 445.952 531.227 446.912 531.851 447.536C532.499 448.16 533.399 448.472 534.551 448.472Z" fill="white"/>
<path d="M513.073 452.324C510.529 452.324 508.513 451.616 507.025 450.2C505.537 448.76 504.793 446.828 504.793 444.404V439.796C504.793 437.348 505.537 435.416 507.025 434C508.513 432.584 510.529 431.876 513.073 431.876C515.617 431.876 517.633 432.584 519.121 434C520.609 435.416 521.353 437.348 521.353 439.796V444.404C521.353 446.828 520.609 448.76 519.121 450.2C517.633 451.616 515.617 452.324 513.073 452.324ZM513.073 448.4C514.273 448.4 515.197 448.076 515.845 447.428C516.517 446.756 516.853 445.796 516.853 444.548V439.652C516.853 438.404 516.517 437.456 515.845 436.808C515.197 436.136 514.273 435.8 513.073 435.8C511.873 435.8 510.937 436.136 510.265 436.808C509.617 437.456 509.293 438.404 509.293 439.652V444.548C509.293 445.796 509.617 446.756 510.265 447.428C510.937 448.076 511.873 448.4 513.073 448.4Z" fill="white"/>
<path d="M491.776 452.36C490.072 452.36 488.596 452.048 487.348 451.424C486.1 450.776 485.128 449.876 484.432 448.724C483.76 447.548 483.424 446.168 483.424 444.584V433.136C483.424 431.552 483.76 430.184 484.432 429.032C485.128 427.856 486.1 426.956 487.348 426.332C488.596 425.684 490.072 425.36 491.776 425.36C493.456 425.36 494.92 425.684 496.168 426.332C497.416 426.956 498.388 427.856 499.084 429.032C499.78 430.184 500.128 431.552 500.128 433.136H495.592C495.592 431.912 495.256 430.976 494.584 430.328C493.936 429.656 493 429.32 491.776 429.32C490.552 429.32 489.604 429.656 488.932 430.328C488.26 430.976 487.924 431.912 487.924 433.136V444.584C487.924 445.808 488.26 446.756 488.932 447.428C489.604 448.076 490.552 448.4 491.776 448.4C493 448.4 493.936 448.076 494.584 447.428C495.256 446.756 495.592 445.808 495.592 444.584H500.128C500.128 446.168 499.78 447.548 499.084 448.724C498.388 449.876 497.416 450.776 496.168 451.424C494.92 452.048 493.456 452.36 491.776 452.36Z" fill="white"/>
<path d="M441.008 452V432.2H445.4V436.052C445.64 434.756 446.228 433.736 447.164 432.992C448.124 432.224 449.36 431.84 450.872 431.84C452.888 431.84 454.46 432.488 455.588 433.784C456.716 435.08 457.28 436.892 457.28 439.22V441.092H452.78V439.436C452.78 438.236 452.468 437.324 451.844 436.7C451.22 436.052 450.332 435.728 449.18 435.728C447.98 435.728 447.068 436.088 446.444 436.808C445.82 437.528 445.508 438.548 445.508 439.868V452H441.008Z" fill="white"/>
<path d="M426.73 452.324C424.186 452.324 422.17 451.616 420.682 450.2C419.194 448.76 418.45 446.828 418.45 444.404V439.796C418.45 437.348 419.194 435.416 420.682 434C422.17 432.584 424.186 431.876 426.73 431.876C429.274 431.876 431.29 432.584 432.778 434C434.266 435.416 435.01 437.348 435.01 439.796V444.404C435.01 446.828 434.266 448.76 432.778 450.2C431.29 451.616 429.274 452.324 426.73 452.324ZM426.73 448.4C427.93 448.4 428.854 448.076 429.502 447.428C430.174 446.756 430.51 445.796 430.51 444.548V439.652C430.51 438.404 430.174 437.456 429.502 436.808C428.854 436.136 427.93 435.8 426.73 435.8C425.53 435.8 424.594 436.136 423.922 436.808C423.274 437.456 422.95 438.404 422.95 439.652V444.548C422.95 445.796 423.274 446.756 423.922 447.428C424.594 448.076 425.53 448.4 426.73 448.4Z" fill="white"/>
<path d="M401.544 452V438.968H396.108V434.9H401.544V431.408C401.544 429.68 402.12 428.3 403.272 427.268C404.424 426.236 405.948 425.72 407.844 425.72H413.64V429.68H407.952C407.376 429.68 406.908 429.848 406.548 430.184C406.212 430.496 406.044 430.928 406.044 431.48V434.9H413.64V438.968H406.044V452H401.544Z" fill="white"/>
<path d="M357.112 458.48L359.92 450.92L352.468 432.2H357.22L361.036 442.316C361.252 442.916 361.468 443.576 361.684 444.296C361.9 444.992 362.056 445.64 362.152 446.24C362.224 445.64 362.356 444.992 362.548 444.296C362.764 443.576 362.98 442.916 363.196 442.316L366.724 432.2H371.476L361.828 458.48H357.112Z" fill="white"/>
<path d="M340.422 452.36C338.742 452.36 337.278 452.036 336.03 451.388C334.782 450.74 333.81 449.828 333.114 448.652C332.442 447.452 332.106 446.048 332.106 444.44V439.76C332.106 438.152 332.442 436.76 333.114 435.584C333.81 434.384 334.782 433.46 336.03 432.812C337.278 432.164 338.742 431.84 340.422 431.84C342.078 431.84 343.518 432.164 344.742 432.812C345.99 433.46 346.95 434.372 347.622 435.548C348.318 436.7 348.666 438.056 348.666 439.616V443.216H336.426V444.584C336.426 445.928 336.774 446.948 337.47 447.644C338.166 448.316 339.15 448.652 340.422 448.652C341.358 448.652 342.15 448.496 342.798 448.184C343.47 447.848 343.866 447.368 343.986 446.744H348.45C348.138 448.448 347.25 449.816 345.786 450.848C344.322 451.856 342.534 452.36 340.422 452.36ZM336.426 439.616V440.3L344.346 440.264V439.58C344.346 438.212 344.01 437.156 343.338 436.412C342.666 435.668 341.694 435.296 340.422 435.296C339.102 435.296 338.106 435.68 337.434 436.448C336.762 437.192 336.426 438.248 336.426 439.616Z" fill="white"/>
<path d="M310.736 452V425.72H315.236V436.448H318.332L323.336 425.72H328.196L322.292 438.248L328.484 452H323.48L318.296 440.372H315.236V452H310.736Z" fill="white"/>
<path d="M1113.88 404V390.968H1108.44V386.9H1113.88V383.408C1113.88 381.68 1114.46 380.3 1115.61 379.268C1116.76 378.236 1118.28 377.72 1120.18 377.72H1125.98V381.68H1120.29C1119.71 381.68 1119.24 381.848 1118.88 382.184C1118.55 382.496 1118.38 382.928 1118.38 383.48V386.9H1125.98V390.968H1118.38V404H1113.88Z" fill="white"/>
<path d="M1095.89 404.324C1093.35 404.324 1091.33 403.616 1089.85 402.2C1088.36 400.76 1087.61 398.828 1087.61 396.404V391.796C1087.61 389.348 1088.36 387.416 1089.85 386C1091.33 384.584 1093.35 383.876 1095.89 383.876C1098.44 383.876 1100.45 384.584 1101.94 386C1103.43 387.416 1104.17 389.348 1104.17 391.796V396.404C1104.17 398.828 1103.43 400.76 1101.94 402.2C1100.45 403.616 1098.44 404.324 1095.89 404.324ZM1095.89 400.4C1097.09 400.4 1098.02 400.076 1098.67 399.428C1099.34 398.756 1099.67 397.796 1099.67 396.548V391.652C1099.67 390.404 1099.34 389.456 1098.67 388.808C1098.02 388.136 1097.09 387.8 1095.89 387.8C1094.69 387.8 1093.76 388.136 1093.09 388.808C1092.44 389.456 1092.11 390.404 1092.11 391.652V396.548C1092.11 397.796 1092.44 398.756 1093.09 399.428C1093.76 400.076 1094.69 400.4 1095.89 400.4Z" fill="white"/>
<path d="M1074.31 404.324C1071.76 404.324 1069.75 403.616 1068.26 402.2C1066.77 400.76 1066.03 398.828 1066.03 396.404V391.796C1066.03 389.348 1066.77 387.416 1068.26 386C1069.75 384.584 1071.76 383.876 1074.31 383.876C1076.85 383.876 1078.87 384.584 1080.36 386C1081.84 387.416 1082.59 389.348 1082.59 391.796V396.404C1082.59 398.828 1081.84 400.76 1080.36 402.2C1078.87 403.616 1076.85 404.324 1074.31 404.324ZM1074.31 400.4C1075.51 400.4 1076.43 400.076 1077.08 399.428C1077.75 398.756 1078.09 397.796 1078.09 396.548V391.652C1078.09 390.404 1077.75 389.456 1077.08 388.808C1076.43 388.136 1075.51 387.8 1074.31 387.8C1073.11 387.8 1072.17 388.136 1071.5 388.808C1070.85 389.456 1070.53 390.404 1070.53 391.652V396.548C1070.53 397.796 1070.85 398.756 1071.5 399.428C1072.17 400.076 1073.11 400.4 1074.31 400.4Z" fill="white"/>
<path d="M1045.41 404V384.2H1049.81V388.052C1050.05 386.756 1050.63 385.736 1051.57 384.992C1052.53 384.224 1053.77 383.84 1055.28 383.84C1057.29 383.84 1058.87 384.488 1059.99 385.784C1061.12 387.08 1061.69 388.892 1061.69 391.22V393.092H1057.19V391.436C1057.19 390.236 1056.87 389.324 1056.25 388.7C1055.63 388.052 1054.74 387.728 1053.59 387.728C1052.39 387.728 1051.47 388.088 1050.85 388.808C1050.23 389.528 1049.91 390.548 1049.91 391.868V404H1045.41Z" fill="white"/>
<path d="M1023.11 404V377.72H1031.86C1033.61 377.72 1035.13 378.056 1036.43 378.728C1037.75 379.4 1038.77 380.348 1039.49 381.572C1040.21 382.772 1040.57 384.188 1040.57 385.82C1040.57 387.452 1040.21 388.88 1039.49 390.104C1038.77 391.304 1037.75 392.24 1036.43 392.912C1035.13 393.584 1033.61 393.92 1031.86 393.92H1027.61V404H1023.11ZM1027.61 389.96H1031.86C1033.13 389.96 1034.14 389.576 1034.88 388.808C1035.62 388.04 1036 387.044 1036 385.82C1036 384.596 1035.62 383.6 1034.88 382.832C1034.14 382.064 1033.13 381.68 1031.86 381.68H1027.61V389.96Z" fill="white"/>
<path d="M986.164 404.36C984.244 404.36 982.684 403.676 981.484 402.308C980.308 400.94 979.72 399.104 979.72 396.8V391.436C979.72 389.108 980.308 387.26 981.484 385.892C982.66 384.524 984.22 383.84 986.164 383.84C987.532 383.84 988.684 384.188 989.62 384.884C990.58 385.58 991.252 386.552 991.636 387.8L991.492 383.264V377.72H995.992V404H991.6V400.4C991.24 401.648 990.592 402.62 989.656 403.316C988.72 404.012 987.556 404.36 986.164 404.36ZM987.856 400.472C989.008 400.472 989.896 400.124 990.52 399.428C991.168 398.732 991.492 397.748 991.492 396.476V391.724C991.492 390.452 991.168 389.468 990.52 388.772C989.896 388.076 989.008 387.728 987.856 387.728C986.704 387.728 985.804 388.04 985.156 388.664C984.532 389.288 984.22 390.248 984.22 391.544V396.656C984.22 397.952 984.532 398.912 985.156 399.536C985.804 400.16 986.704 400.472 987.856 400.472Z" fill="white"/>
<path d="M958.35 404V384.2H962.742V387.908C962.982 386.66 963.57 385.676 964.506 384.956C965.442 384.212 966.63 383.84 968.07 383.84C970.014 383.84 971.562 384.488 972.714 385.784C973.89 387.08 974.478 388.82 974.478 391.004V404H969.978V391.544C969.978 390.32 969.654 389.384 969.006 388.736C968.382 388.064 967.53 387.728 966.45 387.728C965.322 387.728 964.434 388.064 963.786 388.736C963.162 389.408 962.85 390.368 962.85 391.616V404H958.35Z" fill="white"/>
<path d="M942.596 404.36C940.58 404.36 938.984 403.796 937.808 402.668C936.656 401.516 936.08 400.016 936.08 398.168C936.08 396.248 936.74 394.724 938.06 393.596C939.38 392.444 941.192 391.868 943.496 391.868H948.32V390.464C948.32 388.472 947.156 387.476 944.828 387.476C943.772 387.476 942.932 387.68 942.308 388.088C941.684 388.496 941.336 389.072 941.264 389.816H936.944C937.04 388.04 937.784 386.6 939.176 385.496C940.592 384.392 942.488 383.84 944.864 383.84C947.384 383.84 949.34 384.428 950.732 385.604C952.124 386.78 952.82 388.436 952.82 390.572V404H948.428V400.292C948.26 401.564 947.66 402.56 946.628 403.28C945.596 404 944.252 404.36 942.596 404.36ZM944.036 400.688C945.356 400.688 946.4 400.364 947.168 399.716C947.936 399.068 948.32 398.204 948.32 397.124V394.784H943.712C942.728 394.784 941.948 395.06 941.372 395.612C940.796 396.164 940.508 396.872 940.508 397.736C940.508 398.624 940.808 399.344 941.408 399.896C942.032 400.424 942.908 400.688 944.036 400.688Z" fill="white"/>
<path d="M899.352 404V381.788H892.476V377.72H910.764V381.788H903.888V404H899.352Z" fill="white"/>
<path d="M872.474 404L869.738 377.72H873.482L875.138 396.08C875.186 396.704 875.234 397.508 875.282 398.492C875.354 399.452 875.39 400.268 875.39 400.94C875.462 400.268 875.534 399.452 875.606 398.492C875.702 397.508 875.786 396.704 875.858 396.08L878.162 377.72H882.014L884.174 396.08C884.246 396.704 884.33 397.508 884.426 398.492C884.546 399.452 884.642 400.268 884.714 400.94C884.738 400.268 884.774 399.452 884.822 398.492C884.894 397.508 884.954 396.704 885.002 396.08L886.622 377.72H890.33L887.45 404H882.482L880.466 385.568C880.394 384.872 880.322 384.032 880.25 383.048C880.178 382.04 880.118 381.212 880.07 380.564C880.022 381.212 879.962 382.04 879.89 383.048C879.818 384.032 879.746 384.872 879.674 385.568L877.478 404H872.474Z" fill="white"/>
<path d="M857.368 404.36C854.704 404.36 852.592 403.628 851.032 402.164C849.496 400.7 848.729 398.72 848.729 396.224H853.229C853.229 397.52 853.588 398.552 854.308 399.32C855.052 400.064 856.072 400.436 857.368 400.436C858.64 400.436 859.649 400.064 860.393 399.32C861.137 398.576 861.508 397.556 861.508 396.26V377.72H866.008V396.26C866.008 398.756 865.229 400.736 863.669 402.2C862.133 403.64 860.032 404.36 857.368 404.36Z" fill="white"/>
<path d="M809.949 410.48V406.736H815.529C816.585 406.736 817.401 406.448 817.977 405.872C818.553 405.32 818.841 404.564 818.841 403.604V402.416L818.913 399.32C818.505 400.424 817.845 401.288 816.933 401.912C816.045 402.512 814.953 402.812 813.657 402.812C811.641 402.812 810.033 402.14 808.833 400.796C807.657 399.428 807.069 397.58 807.069 395.252V391.4C807.069 389.096 807.657 387.26 808.833 385.892C810.033 384.524 811.641 383.84 813.657 383.84C814.953 383.84 816.045 384.152 816.933 384.776C817.845 385.376 818.505 386.24 818.913 387.368V384.2H823.305V403.712C823.305 405.8 822.609 407.444 821.217 408.644C819.849 409.868 817.977 410.48 815.601 410.48H809.949ZM815.169 398.96C816.321 398.96 817.209 398.624 817.833 397.952C818.481 397.256 818.805 396.296 818.805 395.072V391.616C818.805 390.392 818.481 389.444 817.833 388.772C817.209 388.076 816.321 387.728 815.169 387.728C814.017 387.728 813.129 388.064 812.505 388.736C811.881 389.384 811.569 390.296 811.569 391.472V395.216C811.569 396.392 811.881 397.316 812.505 397.988C813.129 398.636 814.017 398.96 815.169 398.96Z" fill="white"/>
<path d="M785.663 404V384.2H790.055V387.908C790.295 386.66 790.883 385.676 791.819 384.956C792.755 384.212 793.943 383.84 795.383 383.84C797.327 383.84 798.875 384.488 800.027 385.784C801.203 387.08 801.791 388.82 801.791 391.004V404H797.291V391.544C797.291 390.32 796.967 389.384 796.319 388.736C795.695 388.064 794.843 387.728 793.763 387.728C792.635 387.728 791.747 388.064 791.099 388.736C790.475 389.408 790.163 390.368 790.163 391.616V404H785.663Z" fill="white"/>
<path d="M764.041 404V399.932H770.809V388.268H764.761V384.2H775.309V399.932H781.393V404H764.041ZM772.753 380.888C771.841 380.888 771.121 380.66 770.593 380.204C770.065 379.724 769.801 379.088 769.801 378.296C769.801 377.504 770.065 376.88 770.593 376.424C771.121 375.944 771.841 375.704 772.753 375.704C773.665 375.704 774.385 375.944 774.913 376.424C775.441 376.88 775.705 377.504 775.705 378.296C775.705 379.088 775.441 379.724 774.913 380.204C774.385 380.66 773.665 380.888 772.753 380.888Z" fill="white"/>
<path d="M742.527 404V399.932L752.859 388.16H742.851V384.2H758.115V388.268L747.675 400.04H758.511V404H742.527Z" fill="white"/>
<path d="M720.869 404V399.932H727.637V388.268H721.589V384.2H732.137V399.932H738.221V404H720.869ZM729.581 380.888C728.669 380.888 727.949 380.66 727.421 380.204C726.893 379.724 726.629 379.088 726.629 378.296C726.629 377.504 726.893 376.88 727.421 376.424C727.949 375.944 728.669 375.704 729.581 375.704C730.493 375.704 731.213 375.944 731.741 376.424C732.269 376.88 732.533 377.504 732.533 378.296C732.533 379.088 732.269 379.724 731.741 380.204C731.213 380.66 730.493 380.888 729.581 380.888Z" fill="white"/>
<path d="M710.551 404C708.583 404 706.999 403.412 705.799 402.236C704.623 401.06 704.035 399.512 704.035 397.592V381.788H697.519V377.72H708.535V397.484C708.535 398.228 708.739 398.828 709.147 399.284C709.579 399.716 710.155 399.932 710.875 399.932H716.671V404H710.551Z" fill="white"/>
<path d="M677.697 404V399.932H684.465V388.268H678.417V384.2H688.965V399.932H695.049V404H677.697ZM686.409 380.888C685.497 380.888 684.777 380.66 684.249 380.204C683.721 379.724 683.457 379.088 683.457 378.296C683.457 377.504 683.721 376.88 684.249 376.424C684.777 375.944 685.497 375.704 686.409 375.704C687.321 375.704 688.041 375.944 688.569 376.424C689.097 376.88 689.361 377.504 689.361 378.296C689.361 379.088 689.097 379.724 688.569 380.204C688.041 380.66 687.321 380.888 686.409 380.888Z" fill="white"/>
<path d="M666.155 404C664.307 404 662.831 403.472 661.727 402.416C660.647 401.336 660.107 399.884 660.107 398.06V388.268H654.635V384.2H660.107V378.62H664.643V384.2H672.527V388.268H664.643V397.952C664.643 398.528 664.799 399.008 665.111 399.392C665.447 399.752 665.903 399.932 666.479 399.932H672.347V404H666.155Z" fill="white"/>
<path d="M642.589 404.36C640.021 404.36 638.005 403.664 636.541 402.272C635.101 400.856 634.381 398.936 634.381 396.512V377.72H638.917V396.476C638.917 397.724 639.229 398.696 639.853 399.392C640.477 400.088 641.389 400.436 642.589 400.436C643.765 400.436 644.665 400.088 645.289 399.392C645.937 398.696 646.261 397.724 646.261 396.476V377.72H650.797V396.512C650.797 398.936 650.077 400.856 648.637 402.272C647.197 403.664 645.181 404.36 642.589 404.36Z" fill="white"/>
<path d="M595.457 409.76L597.365 398.744H602.513L599.777 409.76H595.457Z" fill="white"/>
<path d="M579.811 404C577.963 404 576.487 403.472 575.383 402.416C574.303 401.336 573.763 399.884 573.763 398.06V388.268H568.291V384.2H573.763V378.62H578.299V384.2H586.183V388.268H578.299V397.952C578.299 398.528 578.455 399.008 578.767 399.392C579.103 399.752 579.559 399.932 580.135 399.932H586.003V404H579.811Z" fill="white"/>
<path d="M548.217 410.48V384.2H552.609V387.836C552.969 386.588 553.617 385.616 554.553 384.92C555.489 384.2 556.653 383.84 558.045 383.84C559.317 383.84 560.433 384.152 561.393 384.776C562.377 385.4 563.133 386.288 563.661 387.44C564.213 388.568 564.489 389.888 564.489 391.4V396.764C564.489 399.044 563.901 400.88 562.725 402.272C561.549 403.664 559.989 404.36 558.045 404.36C556.653 404.36 555.477 404 554.517 403.28C553.581 402.56 552.933 401.552 552.573 400.256L552.717 404.936V410.48H548.217ZM556.353 400.472C557.505 400.472 558.393 400.16 559.017 399.536C559.665 398.912 559.989 397.952 559.989 396.656V391.544C559.989 390.248 559.665 389.288 559.017 388.664C558.393 388.04 557.505 387.728 556.353 387.728C555.201 387.728 554.301 388.076 553.653 388.772C553.029 389.468 552.717 390.452 552.717 391.724V396.476C552.717 397.748 553.029 398.732 553.653 399.428C554.301 400.124 555.201 400.472 556.353 400.472Z" fill="white"/>
<path d="M526.595 404V399.932H533.363V388.268H527.315V384.2H537.863V399.932H543.947V404H526.595ZM535.307 380.888C534.395 380.888 533.675 380.66 533.147 380.204C532.619 379.724 532.355 379.088 532.355 378.296C532.355 377.504 532.619 376.88 533.147 376.424C533.675 375.944 534.395 375.704 535.307 375.704C536.219 375.704 536.939 375.944 537.467 376.424C537.995 376.88 538.259 377.504 538.259 378.296C538.259 379.088 537.995 379.724 537.467 380.204C536.939 380.66 536.219 380.888 535.307 380.888Z" fill="white"/>
<path d="M505.765 404V384.2H510.157V388.052C510.397 386.756 510.985 385.736 511.921 384.992C512.881 384.224 514.117 383.84 515.629 383.84C517.645 383.84 519.217 384.488 520.345 385.784C521.473 387.08 522.037 388.892 522.037 391.22V393.092H517.537V391.436C517.537 390.236 517.225 389.324 516.601 388.7C515.977 388.052 515.089 387.728 513.937 387.728C512.737 387.728 511.825 388.088 511.201 388.808C510.577 389.528 510.265 390.548 510.265 391.868V404H505.765Z" fill="white"/>
<path d="M491.811 404.36C490.107 404.36 488.619 404.048 487.347 403.424C486.099 402.776 485.127 401.876 484.431 400.724C483.735 399.548 483.387 398.168 483.387 396.584V391.616C483.387 390.032 483.735 388.664 484.431 387.512C485.127 386.336 486.099 385.436 487.347 384.812C488.619 384.164 490.107 383.84 491.811 383.84C494.283 383.84 496.263 384.488 497.751 385.784C499.263 387.056 500.055 388.796 500.127 391.004H495.699C495.627 389.972 495.231 389.18 494.511 388.628C493.815 388.052 492.915 387.764 491.811 387.764C490.587 387.764 489.627 388.1 488.931 388.772C488.235 389.42 487.887 390.356 487.887 391.58V396.584C487.887 397.808 488.235 398.756 488.931 399.428C489.627 400.1 490.587 400.436 491.811 400.436C492.939 400.436 493.851 400.16 494.547 399.608C495.243 399.032 495.627 398.228 495.699 397.196H500.127C500.055 399.404 499.263 401.156 497.751 402.452C496.263 403.724 494.283 404.36 491.811 404.36Z" fill="white"/>
<path d="M470.01 404.36C468.234 404.36 466.674 404.048 465.33 403.424C464.01 402.8 462.978 401.912 462.234 400.76C461.514 399.584 461.154 398.192 461.154 396.584H465.582C465.582 397.76 465.978 398.696 466.77 399.392C467.586 400.088 468.666 400.436 470.01 400.436C471.306 400.436 472.326 400.1 473.07 399.428C473.838 398.732 474.222 397.808 474.222 396.656C474.222 395.792 473.97 395.036 473.466 394.388C472.986 393.716 472.29 393.26 471.378 393.02L467.85 392.12C465.954 391.64 464.454 390.74 463.35 389.42C462.246 388.1 461.694 386.528 461.694 384.704C461.694 382.472 462.426 380.696 463.89 379.376C465.354 378.032 467.31 377.36 469.758 377.36C471.414 377.36 472.854 377.66 474.078 378.26C475.326 378.86 476.286 379.712 476.958 380.816C477.63 381.896 477.966 383.168 477.966 384.632H473.574C473.574 383.624 473.226 382.808 472.53 382.184C471.834 381.56 470.91 381.248 469.758 381.248C468.63 381.248 467.73 381.56 467.058 382.184C466.41 382.784 466.086 383.576 466.086 384.56C466.086 385.376 466.314 386.048 466.77 386.576C467.25 387.104 467.91 387.488 468.75 387.728L472.386 388.628C474.33 389.108 475.854 390.068 476.958 391.508C478.086 392.948 478.65 394.664 478.65 396.656C478.65 398.216 478.29 399.572 477.57 400.724C476.874 401.876 475.878 402.776 474.582 403.424C473.286 404.048 471.762 404.36 470.01 404.36Z" fill="white"/>
<path d="M448.352 404.36C446.672 404.36 445.208 404.036 443.96 403.388C442.712 402.74 441.74 401.828 441.044 400.652C440.372 399.452 440.036 398.048 440.036 396.44V391.76C440.036 390.152 440.372 388.76 441.044 387.584C441.74 386.384 442.712 385.46 443.96 384.812C445.208 384.164 446.672 383.84 448.352 383.84C450.008 383.84 451.448 384.164 452.672 384.812C453.92 385.46 454.88 386.372 455.552 387.548C456.248 388.7 456.596 390.056 456.596 391.616V395.216H444.356V396.584C444.356 397.928 444.704 398.948 445.4 399.644C446.096 400.316 447.08 400.652 448.352 400.652C449.288 400.652 450.08 400.496 450.728 400.184C451.4 399.848 451.796 399.368 451.916 398.744H456.38C456.068 400.448 455.18 401.816 453.716 402.848C452.252 403.856 450.464 404.36 448.352 404.36ZM444.356 391.616V392.3L452.276 392.264V391.58C452.276 390.212 451.94 389.156 451.268 388.412C450.596 387.668 449.624 387.296 448.352 387.296C447.032 387.296 446.036 387.68 445.364 388.448C444.692 389.192 444.356 390.248 444.356 391.616Z" fill="white"/>
<path d="M418.702 410.48V384.2H423.094V387.836C423.454 386.588 424.102 385.616 425.038 384.92C425.974 384.2 427.138 383.84 428.53 383.84C429.802 383.84 430.918 384.152 431.878 384.776C432.862 385.4 433.618 386.288 434.146 387.44C434.698 388.568 434.974 389.888 434.974 391.4V396.764C434.974 399.044 434.386 400.88 433.21 402.272C432.034 403.664 430.474 404.36 428.53 404.36C427.138 404.36 425.962 404 425.002 403.28C424.066 402.56 423.418 401.552 423.058 400.256L423.202 404.936V410.48H418.702ZM426.838 400.472C427.99 400.472 428.878 400.16 429.502 399.536C430.15 398.912 430.474 397.952 430.474 396.656V391.544C430.474 390.248 430.15 389.288 429.502 388.664C428.878 388.04 427.99 387.728 426.838 387.728C425.686 387.728 424.786 388.076 424.138 388.772C423.514 389.468 423.202 390.452 423.202 391.724V396.476C423.202 397.748 423.514 398.732 424.138 399.428C424.786 400.124 425.686 400.472 426.838 400.472Z" fill="white"/>
<path d="M400.284 410.48L403.092 402.92L395.64 384.2H400.392L404.208 394.316C404.424 394.916 404.64 395.576 404.856 396.296C405.072 396.992 405.228 397.64 405.324 398.24C405.396 397.64 405.528 396.992 405.72 396.296C405.936 395.576 406.152 394.916 406.368 394.316L409.896 384.2H414.648L405 410.48H400.284Z" fill="white"/>
<path d="M381.29 404V381.788H374.414V377.72H392.702V381.788H385.826V404H381.29Z" fill="white"/>
<path d="M332.358 404V384.2H336.75V387.908C336.99 386.66 337.578 385.676 338.514 384.956C339.45 384.212 340.638 383.84 342.078 383.84C344.022 383.84 345.57 384.488 346.722 385.784C347.898 387.08 348.486 388.82 348.486 391.004V404H343.986V391.544C343.986 390.32 343.662 389.384 343.014 388.736C342.39 388.064 341.538 387.728 340.458 387.728C339.33 387.728 338.442 388.064 337.794 388.736C337.17 389.408 336.858 390.368 336.858 391.616V404H332.358Z" fill="white"/>
<path d="M310.736 404V399.932H317.504V388.268H311.456V384.2H322.004V399.932H328.088V404H310.736ZM319.448 380.888C318.536 380.888 317.816 380.66 317.288 380.204C316.76 379.724 316.496 379.088 316.496 378.296C316.496 377.504 316.76 376.88 317.288 376.424C317.816 375.944 318.536 375.704 319.448 375.704C320.36 375.704 321.08 375.944 321.608 376.424C322.136 376.88 322.4 377.504 322.4 378.296C322.4 379.088 322.136 379.724 321.608 380.204C321.08 380.66 320.36 380.888 319.448 380.888Z" fill="white"/>
<path d="M1067 356V336.2H1071.39V340.052C1071.63 338.756 1072.22 337.736 1073.16 336.992C1074.12 336.224 1075.35 335.84 1076.86 335.84C1078.88 335.84 1080.45 336.488 1081.58 337.784C1082.71 339.08 1083.27 340.892 1083.27 343.22V345.092H1078.77V343.436C1078.77 342.236 1078.46 341.324 1077.84 340.7C1077.21 340.052 1076.32 339.728 1075.17 339.728C1073.97 339.728 1073.06 340.088 1072.44 340.808C1071.81 341.528 1071.5 342.548 1071.5 343.868V356H1067Z" fill="white"/>
<path d="M1052.76 356.36C1051.08 356.36 1049.61 356.036 1048.37 355.388C1047.12 354.74 1046.15 353.828 1045.45 352.652C1044.78 351.452 1044.44 350.048 1044.44 348.44V343.76C1044.44 342.152 1044.78 340.76 1045.45 339.584C1046.15 338.384 1047.12 337.46 1048.37 336.812C1049.61 336.164 1051.08 335.84 1052.76 335.84C1054.41 335.84 1055.85 336.164 1057.08 336.812C1058.33 337.46 1059.29 338.372 1059.96 339.548C1060.65 340.7 1061 342.056 1061 343.616V347.216H1048.76V348.584C1048.76 349.928 1049.11 350.948 1049.81 351.644C1050.5 352.316 1051.49 352.652 1052.76 352.652C1053.69 352.652 1054.49 352.496 1055.13 352.184C1055.81 351.848 1056.2 351.368 1056.32 350.744H1060.79C1060.47 352.448 1059.59 353.816 1058.12 354.848C1056.66 355.856 1054.87 356.36 1052.76 356.36ZM1048.76 343.616V344.3L1056.68 344.264V343.58C1056.68 342.212 1056.35 341.156 1055.67 340.412C1055 339.668 1054.03 339.296 1052.76 339.296C1051.44 339.296 1050.44 339.68 1049.77 340.448C1049.1 341.192 1048.76 342.248 1048.76 343.616Z" fill="white"/>
<path d="M1028.29 356L1021.63 336.2H1026.35L1030.16 348.224C1030.4 348.944 1030.61 349.676 1030.78 350.42C1030.97 351.14 1031.1 351.764 1031.17 352.292C1031.27 351.764 1031.39 351.14 1031.53 350.42C1031.7 349.676 1031.89 348.956 1032.11 348.26L1035.89 336.2H1040.64L1034.02 356H1028.29Z" fill="white"/>
<path d="M1002.24 356V336.2H1006.63V340.052C1006.87 338.756 1007.46 337.736 1008.4 336.992C1009.36 336.224 1010.59 335.84 1012.11 335.84C1014.12 335.84 1015.69 336.488 1016.82 337.784C1017.95 339.08 1018.51 340.892 1018.51 343.22V345.092H1014.01V343.436C1014.01 342.236 1013.7 341.324 1013.08 340.7C1012.45 340.052 1011.57 339.728 1010.41 339.728C1009.21 339.728 1008.3 340.088 1007.68 340.808C1007.05 341.528 1006.74 342.548 1006.74 343.868V356H1002.24Z" fill="white"/>
<path d="M988 356.36C986.32 356.36 984.856 356.036 983.608 355.388C982.36 354.74 981.388 353.828 980.692 352.652C980.02 351.452 979.684 350.048 979.684 348.44V343.76C979.684 342.152 980.02 340.76 980.692 339.584C981.388 338.384 982.36 337.46 983.608 336.812C984.856 336.164 986.32 335.84 988 335.84C989.656 335.84 991.096 336.164 992.32 336.812C993.568 337.46 994.528 338.372 995.2 339.548C995.896 340.7 996.244 342.056 996.244 343.616V347.216H984.004V348.584C984.004 349.928 984.352 350.948 985.048 351.644C985.744 352.316 986.728 352.652 988 352.652C988.936 352.652 989.728 352.496 990.376 352.184C991.048 351.848 991.444 351.368 991.564 350.744H996.028C995.716 352.448 994.828 353.816 993.364 354.848C991.9 355.856 990.112 356.36 988 356.36ZM984.004 343.616V344.3L991.924 344.264V343.58C991.924 342.212 991.588 341.156 990.916 340.412C990.244 339.668 989.272 339.296 988 339.296C986.68 339.296 985.684 339.68 985.012 340.448C984.34 341.192 984.004 342.248 984.004 343.616Z" fill="white"/>
<path d="M966.486 356.36C964.71 356.36 963.15 356.048 961.806 355.424C960.486 354.8 959.454 353.912 958.71 352.76C957.99 351.584 957.63 350.192 957.63 348.584H962.058C962.058 349.76 962.454 350.696 963.246 351.392C964.062 352.088 965.142 352.436 966.486 352.436C967.782 352.436 968.802 352.1 969.546 351.428C970.314 350.732 970.698 349.808 970.698 348.656C970.698 347.792 970.446 347.036 969.942 346.388C969.462 345.716 968.766 345.26 967.854 345.02L964.326 344.12C962.43 343.64 960.93 342.74 959.826 341.42C958.722 340.1 958.17 338.528 958.17 336.704C958.17 334.472 958.902 332.696 960.366 331.376C961.83 330.032 963.786 329.36 966.234 329.36C967.89 329.36 969.33 329.66 970.554 330.26C971.802 330.86 972.762 331.712 973.434 332.816C974.106 333.896 974.442 335.168 974.442 336.632H970.05C970.05 335.624 969.702 334.808 969.006 334.184C968.31 333.56 967.386 333.248 966.234 333.248C965.106 333.248 964.206 333.56 963.534 334.184C962.886 334.784 962.562 335.576 962.562 336.56C962.562 337.376 962.79 338.048 963.246 338.576C963.726 339.104 964.386 339.488 965.226 339.728L968.862 340.628C970.806 341.108 972.33 342.068 973.434 343.508C974.562 344.948 975.126 346.664 975.126 348.656C975.126 350.216 974.766 351.572 974.046 352.724C973.35 353.876 972.354 354.776 971.058 355.424C969.762 356.048 968.238 356.36 966.486 356.36Z" fill="white"/>
<path d="M923.206 356.36C921.502 356.36 920.026 356.036 918.778 355.388C917.53 354.74 916.558 353.828 915.862 352.652C915.19 351.476 914.854 350.096 914.854 348.512V337.208C914.854 335.624 915.19 334.244 915.862 333.068C916.558 331.892 917.53 330.98 918.778 330.332C920.026 329.684 921.502 329.36 923.206 329.36C924.91 329.36 926.386 329.684 927.634 330.332C928.882 330.98 929.842 331.892 930.514 333.068C931.21 334.244 931.558 335.624 931.558 337.208V348.512C931.558 350.096 931.21 351.476 930.514 352.652C929.842 353.828 928.882 354.74 927.634 355.388C926.386 356.036 924.91 356.36 923.206 356.36ZM923.206 352.472C924.454 352.472 925.45 352.112 926.194 351.392C926.938 350.672 927.31 349.712 927.31 348.512V337.208C927.31 336.008 926.938 335.048 926.194 334.328C925.474 333.608 924.478 333.248 923.206 333.248C921.934 333.248 920.926 333.608 920.182 334.328C919.462 335.048 919.102 336.008 919.102 337.208V348.512C919.102 349.712 919.474 350.672 920.218 351.392C920.962 352.112 921.958 352.472 923.206 352.472ZM923.206 345.02C922.486 345.02 921.91 344.828 921.478 344.444C921.046 344.036 920.83 343.472 920.83 342.752C920.83 342.032 921.046 341.492 921.478 341.132C921.91 340.748 922.486 340.556 923.206 340.556C923.926 340.556 924.502 340.748 924.934 341.132C925.366 341.492 925.582 342.032 925.582 342.752C925.582 343.472 925.366 344.036 924.934 344.444C924.502 344.828 923.926 345.02 923.206 345.02Z" fill="white"/>
<path d="M901.62 356.36C900.612 356.36 899.796 356.06 899.172 355.46C898.572 354.836 898.272 354.032 898.272 353.048C898.272 352.064 898.572 351.26 899.172 350.636C899.796 350.012 900.612 349.7 901.62 349.7C902.628 349.7 903.432 350.012 904.032 350.636C904.656 351.26 904.968 352.064 904.968 353.048C904.968 354.032 904.656 354.836 904.032 355.46C903.432 356.06 902.628 356.36 901.62 356.36Z" fill="white"/>
<path d="M871.898 356V351.932L881.366 342.248C882.902 340.64 883.67 339.008 883.67 337.352C883.67 336.176 883.322 335.228 882.626 334.508C881.954 333.764 881.042 333.392 879.89 333.392C878.714 333.392 877.766 333.776 877.046 334.544C876.35 335.288 876.002 336.284 876.002 337.532H871.502C871.502 335.9 871.862 334.472 872.582 333.248C873.302 332.024 874.298 331.076 875.57 330.404C876.842 329.708 878.318 329.36 879.998 329.36C881.654 329.36 883.106 329.684 884.354 330.332C885.602 330.98 886.562 331.892 887.234 333.068C887.93 334.22 888.278 335.576 888.278 337.136C888.278 338.48 887.954 339.824 887.306 341.168C886.682 342.512 885.638 343.904 884.174 345.344L877.55 351.932H888.602V356H871.898Z" fill="white"/>
<path d="M828.834 356V329.72H833.334V336.2L833.227 339.872C833.467 338.624 834.054 337.64 834.99 336.92C835.926 336.2 837.115 335.84 838.555 335.84C840.499 335.84 842.046 336.488 843.198 337.784C844.374 339.08 844.963 340.82 844.963 343.004V356H840.463V343.544C840.463 342.32 840.138 341.384 839.49 340.736C838.866 340.064 838.015 339.728 836.935 339.728C835.807 339.728 834.919 340.064 834.271 340.736C833.647 341.408 833.334 342.368 833.334 343.616V356H828.834Z" fill="white"/>
<path d="M817.257 356C815.409 356 813.933 355.472 812.829 354.416C811.749 353.336 811.209 351.884 811.209 350.06V340.268H805.737V336.2H811.209V330.62H815.745V336.2H823.629V340.268H815.745V349.952C815.745 350.528 815.901 351.008 816.213 351.392C816.549 351.752 817.005 351.932 817.581 351.932H823.449V356H817.257Z" fill="white"/>
<path d="M793.691 356.36C791.171 356.36 789.191 355.664 787.751 354.272C786.311 352.856 785.591 350.936 785.591 348.512V336.2H790.091V348.476C790.091 349.724 790.403 350.696 791.027 351.392C791.651 352.088 792.539 352.436 793.691 352.436C794.819 352.436 795.695 352.088 796.319 351.392C796.967 350.696 797.291 349.724 797.291 348.476V336.2H801.791V348.512C801.791 350.936 801.059 352.856 799.595 354.272C798.131 355.664 796.163 356.36 793.691 356.36Z" fill="white"/>
<path d="M762.565 356L769.189 329.72H774.985L781.645 356H777.037L775.597 349.628H768.613L767.173 356H762.565ZM769.441 345.956H774.769L773.185 338.9C772.921 337.724 772.693 336.668 772.501 335.732C772.309 334.772 772.177 334.076 772.105 333.644C772.033 334.076 771.901 334.772 771.709 335.732C771.517 336.668 771.289 337.712 771.025 338.864L769.441 345.956Z" fill="white"/>
<path d="M750.519 356.36C747.999 356.36 745.995 355.64 744.507 354.2C743.043 352.76 742.311 350.768 742.311 348.224V337.496C742.311 334.952 743.043 332.96 744.507 331.52C745.995 330.08 747.999 329.36 750.519 329.36C753.039 329.36 755.031 330.08 756.495 331.52C757.983 332.96 758.727 334.94 758.727 337.46V348.224C758.727 350.768 757.983 352.76 756.495 354.2C755.031 355.64 753.039 356.36 750.519 356.36ZM750.519 352.4C751.743 352.4 752.667 352.076 753.291 351.428C753.915 350.756 754.227 349.808 754.227 348.584V337.136C754.227 335.912 753.915 334.976 753.291 334.328C752.667 333.656 751.743 333.32 750.519 333.32C749.295 333.32 748.371 333.656 747.747 334.328C747.123 334.976 746.811 335.912 746.811 337.136V348.584C746.811 349.808 747.123 350.756 747.747 351.428C748.371 352.076 749.295 352.4 750.519 352.4Z" fill="white"/>
<path d="M709.327 356C707.479 356 706.003 355.472 704.899 354.416C703.819 353.336 703.279 351.884 703.279 350.06V340.268H697.807V336.2H703.279V330.62H707.815V336.2H715.699V340.268H707.815V349.952C707.815 350.528 707.971 351.008 708.283 351.392C708.619 351.752 709.075 351.932 709.651 351.932H715.519V356H709.327Z" fill="white"/>
<path d="M677.733 356V336.2H682.125V339.908C682.365 338.66 682.953 337.676 683.889 336.956C684.825 336.212 686.013 335.84 687.453 335.84C689.397 335.84 690.945 336.488 692.097 337.784C693.273 339.08 693.861 340.82 693.861 343.004V356H689.361V343.544C689.361 342.32 689.037 341.384 688.389 340.736C687.765 340.064 686.913 339.728 685.833 339.728C684.705 339.728 683.817 340.064 683.169 340.736C682.545 341.408 682.233 342.368 682.233 343.616V356H677.733Z" fill="white"/>
<path d="M661.979 356.36C659.963 356.36 658.367 355.796 657.191 354.668C656.039 353.516 655.463 352.016 655.463 350.168C655.463 348.248 656.123 346.724 657.443 345.596C658.763 344.444 660.575 343.868 662.879 343.868H667.703V342.464C667.703 340.472 666.539 339.476 664.211 339.476C663.155 339.476 662.315 339.68 661.691 340.088C661.067 340.496 660.719 341.072 660.647 341.816H656.327C656.423 340.04 657.167 338.6 658.559 337.496C659.975 336.392 661.871 335.84 664.247 335.84C666.767 335.84 668.723 336.428 670.115 337.604C671.507 338.78 672.203 340.436 672.203 342.572V356H667.811V352.292C667.643 353.564 667.043 354.56 666.011 355.28C664.979 356 663.635 356.36 661.979 356.36ZM663.419 352.688C664.739 352.688 665.783 352.364 666.551 351.716C667.319 351.068 667.703 350.204 667.703 349.124V346.784H663.095C662.111 346.784 661.331 347.06 660.755 347.612C660.179 348.164 659.891 348.872 659.891 349.736C659.891 350.624 660.191 351.344 660.791 351.896C661.415 352.424 662.291 352.688 663.419 352.688Z" fill="white"/>
<path d="M634.525 356V351.932H641.293V340.268H635.245V336.2H645.793V351.932H651.877V356H634.525ZM643.237 332.888C642.325 332.888 641.605 332.66 641.077 332.204C640.549 331.724 640.285 331.088 640.285 330.296C640.285 329.504 640.549 328.88 641.077 328.424C641.605 327.944 642.325 327.704 643.237 327.704C644.149 327.704 644.869 327.944 645.397 328.424C645.925 328.88 646.189 329.504 646.189 330.296C646.189 331.088 645.925 331.724 645.397 332.204C644.869 332.66 644.149 332.888 643.237 332.888Z" fill="white"/>
<path d="M624.207 356C622.239 356 620.655 355.412 619.455 354.236C618.279 353.06 617.691 351.512 617.691 349.592V333.788H611.175V329.72H622.191V349.484C622.191 350.228 622.395 350.828 622.803 351.284C623.235 351.716 623.811 351.932 624.531 351.932H630.327V356H624.207Z" fill="white"/>
<path d="M591.389 362.48V336.2H595.781V339.836C596.141 338.588 596.789 337.616 597.725 336.92C598.661 336.2 599.825 335.84 601.217 335.84C602.489 335.84 603.605 336.152 604.565 336.776C605.549 337.4 606.305 338.288 606.833 339.44C607.385 340.568 607.661 341.888 607.661 343.4V348.764C607.661 351.044 607.073 352.88 605.897 354.272C604.721 355.664 603.161 356.36 601.217 356.36C599.825 356.36 598.649 356 597.689 355.28C596.753 354.56 596.105 353.552 595.745 352.256L595.889 356.936V362.48H591.389ZM599.525 352.472C600.677 352.472 601.565 352.16 602.189 351.536C602.837 350.912 603.161 349.952 603.161 348.656V343.544C603.161 342.248 602.837 341.288 602.189 340.664C601.565 340.04 600.677 339.728 599.525 339.728C598.373 339.728 597.473 340.076 596.825 340.772C596.201 341.468 595.889 342.452 595.889 343.724V348.476C595.889 349.748 596.201 350.732 596.825 351.428C597.473 352.124 598.373 352.472 599.525 352.472Z" fill="white"/>
<path d="M568.723 356V336.2H572.467V339.08H572.575C572.647 338.12 572.983 337.34 573.583 336.74C574.183 336.14 574.939 335.84 575.851 335.84C576.739 335.84 577.495 336.128 578.119 336.704C578.743 337.256 579.163 338.012 579.379 338.972C579.475 338.012 579.823 337.256 580.423 336.704C581.047 336.128 581.827 335.84 582.763 335.84C583.963 335.84 584.959 336.32 585.751 337.28C586.543 338.216 586.939 339.428 586.939 340.916V356H582.979V341.24C582.979 340.592 582.823 340.088 582.511 339.728C582.223 339.344 581.803 339.152 581.251 339.152C580.171 339.152 579.631 339.848 579.631 341.24V356H576.031V341.24C576.031 340.592 575.887 340.088 575.599 339.728C575.335 339.344 574.939 339.152 574.411 339.152C573.259 339.152 572.683 339.848 572.683 341.24V356H568.723Z" fill="white"/>
<path d="M556.245 356.324C553.701 356.324 551.685 355.616 550.197 354.2C548.709 352.76 547.965 350.828 547.965 348.404V343.796C547.965 341.348 548.709 339.416 550.197 338C551.685 336.584 553.701 335.876 556.245 335.876C558.789 335.876 560.805 336.584 562.293 338C563.781 339.416 564.525 341.348 564.525 343.796V348.404C564.525 350.828 563.781 352.76 562.293 354.2C560.805 355.616 558.789 356.324 556.245 356.324ZM556.245 352.4C557.445 352.4 558.369 352.076 559.017 351.428C559.689 350.756 560.025 349.796 560.025 348.548V343.652C560.025 342.404 559.689 341.456 559.017 340.808C558.369 340.136 557.445 339.8 556.245 339.8C555.045 339.8 554.109 340.136 553.437 340.808C552.789 341.456 552.465 342.404 552.465 343.652V348.548C552.465 349.796 552.789 350.756 553.437 351.428C554.109 352.076 555.045 352.4 556.245 352.4Z" fill="white"/>
<path d="M534.947 356.36C533.243 356.36 531.767 356.048 530.519 355.424C529.271 354.776 528.299 353.876 527.603 352.724C526.931 351.548 526.595 350.168 526.595 348.584V337.136C526.595 335.552 526.931 334.184 527.603 333.032C528.299 331.856 529.271 330.956 530.519 330.332C531.767 329.684 533.243 329.36 534.947 329.36C536.627 329.36 538.091 329.684 539.339 330.332C540.587 330.956 541.559 331.856 542.255 333.032C542.951 334.184 543.299 335.552 543.299 337.136H538.763C538.763 335.912 538.427 334.976 537.755 334.328C537.107 333.656 536.171 333.32 534.947 333.32C533.723 333.32 532.775 333.656 532.103 334.328C531.431 334.976 531.095 335.912 531.095 337.136V348.584C531.095 349.808 531.431 350.756 532.103 351.428C532.775 352.076 533.723 352.4 534.947 352.4C536.171 352.4 537.107 352.076 537.755 351.428C538.427 350.756 538.763 349.808 538.763 348.584H543.299C543.299 350.168 542.951 351.548 542.255 352.724C541.559 353.876 540.587 354.776 539.339 355.424C538.091 356.048 536.627 356.36 534.947 356.36Z" fill="white"/>
<path d="M507.313 346.208V342.032H518.833V346.208H507.313Z" fill="white"/>
<path d="M490.66 356.324C488.308 356.324 486.448 355.796 485.08 354.74C483.712 353.66 483.028 352.208 483.028 350.384H487.456C487.456 351.152 487.732 351.74 488.284 352.148C488.86 352.556 489.652 352.76 490.66 352.76H492.244C493.324 352.76 494.152 352.556 494.728 352.148C495.328 351.74 495.628 351.152 495.628 350.384C495.628 349.664 495.424 349.136 495.016 348.8C494.608 348.44 493.984 348.2 493.144 348.08L488.212 347.432C486.628 347.216 485.404 346.604 484.54 345.596C483.7 344.588 483.28 343.28 483.28 341.672C483.28 339.8 483.904 338.372 485.152 337.388C486.4 336.38 488.2 335.876 490.552 335.876H492.208C494.416 335.876 496.192 336.38 497.536 337.388C498.88 338.396 499.576 339.74 499.624 341.42H495.16C495.136 340.796 494.86 340.304 494.332 339.944C493.804 339.56 493.096 339.368 492.208 339.368H490.552C489.592 339.368 488.86 339.572 488.356 339.98C487.852 340.364 487.6 340.892 487.6 341.564C487.6 342.164 487.78 342.608 488.14 342.896C488.524 343.184 489.076 343.364 489.796 343.436L494.44 344.084C496.264 344.3 497.632 344.948 498.544 346.028C499.48 347.084 499.948 348.512 499.948 350.312C499.948 352.232 499.288 353.72 497.968 354.776C496.672 355.808 494.764 356.324 492.244 356.324H490.66Z" fill="white"/>
<path d="M468.101 356.36C466.181 356.36 464.621 355.676 463.421 354.308C462.245 352.94 461.657 351.104 461.657 348.8V343.436C461.657 341.108 462.245 339.26 463.421 337.892C464.597 336.524 466.157 335.84 468.101 335.84C469.469 335.84 470.621 336.188 471.557 336.884C472.517 337.58 473.189 338.552 473.573 339.8L473.429 335.264V329.72H477.929V356H473.537V352.4C473.177 353.648 472.529 354.62 471.593 355.316C470.657 356.012 469.493 356.36 468.101 356.36ZM469.793 352.472C470.945 352.472 471.833 352.124 472.457 351.428C473.105 350.732 473.429 349.748 473.429 348.476V343.724C473.429 342.452 473.105 341.468 472.457 340.772C471.833 340.076 470.945 339.728 469.793 339.728C468.641 339.728 467.741 340.04 467.093 340.664C466.469 341.288 466.157 342.248 466.157 343.544V348.656C466.157 349.952 466.469 350.912 467.093 351.536C467.741 352.16 468.641 352.472 469.793 352.472Z" fill="white"/>
<path d="M441.008 356V336.2H445.4V340.052C445.64 338.756 446.228 337.736 447.164 336.992C448.124 336.224 449.36 335.84 450.872 335.84C452.888 335.84 454.46 336.488 455.588 337.784C456.716 339.08 457.28 340.892 457.28 343.22V345.092H452.78V343.436C452.78 342.236 452.468 341.324 451.844 340.7C451.22 340.052 450.332 339.728 449.18 339.728C447.98 339.728 447.068 340.088 446.444 340.808C445.82 341.528 445.508 342.548 445.508 343.868V356H441.008Z" fill="white"/>
<path d="M424.534 356.36C422.518 356.36 420.922 355.796 419.746 354.668C418.594 353.516 418.018 352.016 418.018 350.168C418.018 348.248 418.678 346.724 419.998 345.596C421.318 344.444 423.13 343.868 425.434 343.868H430.258V342.464C430.258 340.472 429.094 339.476 426.766 339.476C425.71 339.476 424.87 339.68 424.246 340.088C423.622 340.496 423.274 341.072 423.202 341.816H418.882C418.978 340.04 419.722 338.6 421.114 337.496C422.53 336.392 424.426 335.84 426.802 335.84C429.322 335.84 431.278 336.428 432.67 337.604C434.062 338.78 434.758 340.436 434.758 342.572V356H430.366V352.292C430.198 353.564 429.598 354.56 428.566 355.28C427.534 356 426.19 356.36 424.534 356.36ZM425.974 352.688C427.294 352.688 428.338 352.364 429.106 351.716C429.874 351.068 430.258 350.204 430.258 349.124V346.784H425.65C424.666 346.784 423.886 347.06 423.31 347.612C422.734 348.164 422.446 348.872 422.446 349.736C422.446 350.624 422.746 351.344 423.346 351.896C423.97 352.424 424.846 352.688 425.974 352.688Z" fill="white"/>
<path d="M403.344 356.36C401.424 356.36 399.864 355.676 398.664 354.308C397.488 352.94 396.9 351.104 396.9 348.8V343.436C396.9 341.108 397.488 339.26 398.664 337.892C399.84 336.524 401.4 335.84 403.344 335.84C404.712 335.84 405.864 336.188 406.8 336.884C407.76 337.58 408.432 338.552 408.816 339.8L408.672 335.264V329.72H413.172V356H408.78V352.4C408.42 353.648 407.772 354.62 406.836 355.316C405.9 356.012 404.736 356.36 403.344 356.36ZM405.036 352.472C406.188 352.472 407.076 352.124 407.7 351.428C408.348 350.732 408.672 349.748 408.672 348.476V343.724C408.672 342.452 408.348 341.468 407.7 340.772C407.076 340.076 406.188 339.728 405.036 339.728C403.884 339.728 402.984 340.04 402.336 340.664C401.712 341.288 401.4 342.248 401.4 343.544V348.656C401.4 349.952 401.712 350.912 402.336 351.536C402.984 352.16 403.884 352.472 405.036 352.472Z" fill="white"/>
<path d="M375.53 356V336.2H379.922V339.908C380.162 338.66 380.75 337.676 381.686 336.956C382.622 336.212 383.81 335.84 385.25 335.84C387.194 335.84 388.742 336.488 389.894 337.784C391.07 339.08 391.658 340.82 391.658 343.004V356H387.158V343.544C387.158 342.32 386.834 341.384 386.186 340.736C385.562 340.064 384.71 339.728 383.63 339.728C382.502 339.728 381.614 340.064 380.966 340.736C380.342 341.408 380.03 342.368 380.03 343.616V356H375.53Z" fill="white"/>
<path d="M359.776 356.36C357.76 356.36 356.164 355.796 354.988 354.668C353.836 353.516 353.26 352.016 353.26 350.168C353.26 348.248 353.92 346.724 355.24 345.596C356.56 344.444 358.372 343.868 360.676 343.868H365.5V342.464C365.5 340.472 364.336 339.476 362.008 339.476C360.952 339.476 360.112 339.68 359.488 340.088C358.864 340.496 358.516 341.072 358.444 341.816H354.124C354.22 340.04 354.964 338.6 356.356 337.496C357.772 336.392 359.668 335.84 362.044 335.84C364.564 335.84 366.52 336.428 367.912 337.604C369.304 338.78 370 340.436 370 342.572V356H365.608V352.292C365.44 353.564 364.84 354.56 363.808 355.28C362.776 356 361.432 356.36 359.776 356.36ZM361.216 352.688C362.536 352.688 363.58 352.364 364.348 351.716C365.116 351.068 365.5 350.204 365.5 349.124V346.784H360.892C359.908 346.784 359.128 347.06 358.552 347.612C357.976 348.164 357.688 348.872 357.688 349.736C357.688 350.624 357.988 351.344 358.588 351.896C359.212 352.424 360.088 352.688 361.216 352.688Z" fill="white"/>
<path d="M342.366 356C340.518 356 339.042 355.472 337.938 354.416C336.858 353.336 336.318 351.884 336.318 350.06V340.268H330.846V336.2H336.318V330.62H340.854V336.2H348.738V340.268H340.854V349.952C340.854 350.528 341.01 351.008 341.322 351.392C341.658 351.752 342.114 351.932 342.69 351.932H348.558V356H342.366Z" fill="white"/>
<path d="M318.908 356.36C317.132 356.36 315.572 356.048 314.228 355.424C312.908 354.8 311.876 353.912 311.132 352.76C310.412 351.584 310.052 350.192 310.052 348.584H314.48C314.48 349.76 314.876 350.696 315.668 351.392C316.484 352.088 317.564 352.436 318.908 352.436C320.204 352.436 321.224 352.1 321.968 351.428C322.736 350.732 323.12 349.808 323.12 348.656C323.12 347.792 322.868 347.036 322.364 346.388C321.884 345.716 321.188 345.26 320.276 345.02L316.748 344.12C314.852 343.64 313.352 342.74 312.248 341.42C311.144 340.1 310.592 338.528 310.592 336.704C310.592 334.472 311.324 332.696 312.788 331.376C314.252 330.032 316.208 329.36 318.656 329.36C320.312 329.36 321.752 329.66 322.976 330.26C324.224 330.86 325.184 331.712 325.856 332.816C326.528 333.896 326.864 335.168 326.864 336.632H322.472C322.472 335.624 322.124 334.808 321.428 334.184C320.732 333.56 319.808 333.248 318.656 333.248C317.528 333.248 316.628 333.56 315.956 334.184C315.308 334.784 314.984 335.576 314.984 336.56C314.984 337.376 315.212 338.048 315.668 338.576C316.148 339.104 316.808 339.488 317.648 339.728L321.284 340.628C323.228 341.108 324.752 342.068 325.856 343.508C326.984 344.948 327.548 346.664 327.548 348.656C327.548 350.216 327.188 351.572 326.468 352.724C325.772 353.876 324.776 354.776 323.48 355.424C322.184 356.048 320.66 356.36 318.908 356.36Z" fill="white"/>
<defs>
<linearGradient id="paint0_linear_5_157" x1="600" y1="0" x2="600" y2="675" gradientUnits="userSpaceOnUse">
<stop stop-color="#580DD3"/>
<stop offset="0.5" stop-color="#5A0CCE"/>
<stop offset="0.97" stop-color="#8C00FA"/>
</linearGradient>
<clipPath id="clip0_5_157">
<rect width="200" height="200" fill="white" transform="translate(60 297)"/>
</clipPath>
<clipPath id="clip1_5_157">
<rect width="200" height="200" fill="white" transform="translate(60 297)"/>
</clipPath>
</defs>
</svg>
